<svg width="212" height="40" viewBox="0 0 212 40" fill="none" xmlns="http://www.w3.org/2000/svg">
<path d="M24.6761 29.2566C25.1561 28.9686 25.5561 28.6166 25.8761 28.2006C26.1961 27.7526 26.4841 27.2566 26.7401 26.7126C26.7401 27.2886 26.5961 27.8646 26.3081 28.4406C26.0521 29.0166 25.7161 29.5606 25.3001 30.0726C24.9161 30.5846 24.4841 31.0646 24.0041 31.5126C23.5241 31.9286 23.0761 32.2646 22.6601 32.5206C22.0521 32.0726 21.4921 31.5606 20.9801 30.9846C20.5001 30.4086 20.1641 29.8486 19.9721 29.3046C19.3961 29.8166 18.8361 30.2646 18.2921 30.6486C17.7801 31.0326 17.3001 31.3526 16.8521 31.6086C16.4361 31.8646 16.0841 32.0726 15.7961 32.2326C15.5081 32.3926 15.3321 32.4886 15.2681 32.5206C14.6281 32.2966 13.9081 31.9606 13.1081 31.5126C12.3401 31.0646 11.5241 30.5846 10.6601 30.0726C9.79611 29.5606 8.90011 29.0486 7.97211 28.5366C7.04411 27.9926 6.10011 27.5126 5.14011 27.0966C4.56411 26.8406 4.03611 26.6966 3.55611 26.6646C3.10811 26.6326 2.69211 26.9046 2.30811 27.4806C1.92411 28.0566 1.74811 28.7286 1.78011 29.4966C1.84411 30.2646 2.06811 30.9526 2.45211 31.5606C2.86811 32.1686 3.44411 32.6006 4.18011 32.8566C4.94811 33.1126 5.86011 33.0006 6.91611 32.5206C5.98811 33.0646 5.07611 33.2566 4.18011 33.0966C3.31611 32.9366 2.59611 32.5686 2.02011 31.9926C1.44411 31.4166 1.07611 30.6966 0.916113 29.8326C0.756113 28.9366 0.932113 28.0086 1.44411 27.0486C1.63611 26.7286 1.90811 26.3446 2.26011 25.8966C2.64411 25.4486 3.06011 25.0326 3.50811 24.6486C3.95611 24.2646 4.42011 23.9766 4.90011 23.7846C5.41211 23.5926 5.86011 23.5766 6.24411 23.7366C7.14011 24.1526 8.03611 24.6326 8.93211 25.1766C9.73211 24.5366 10.4841 23.8006 11.1881 22.9686C11.8921 22.1366 12.5641 21.2566 13.2041 20.3286C13.8441 19.3686 14.4681 18.3926 15.0761 17.4006C15.6841 16.3766 16.2921 15.3526 16.9001 14.3286C16.6441 13.7526 16.1801 13.2086 15.5081 12.6966C14.8361 12.1846 14.0841 11.8486 13.2521 11.6886C12.4201 11.5286 11.5881 11.6246 10.7561 11.9766C9.92411 12.2966 9.23611 12.9846 8.69211 14.0406C8.75611 13.1446 9.12411 12.3766 9.79611 11.7366C10.4681 11.0966 11.2841 10.6646 12.2441 10.4406C13.2041 10.1846 14.2121 10.2006 15.2681 10.4886C16.3241 10.7766 17.2681 11.4006 18.1001 12.3606L18.9641 11.0166C18.3881 10.2806 17.6201 9.72057 16.6601 9.33657C15.7001 8.95257 14.7081 8.76057 13.6841 8.76057C12.4041 8.76057 11.3161 8.98457 10.4201 9.43257C9.52411 9.88057 8.80411 10.4726 8.26011 11.2086C7.74811 11.9446 7.41211 12.7606 7.25211 13.6566C7.12411 14.5526 7.17211 15.4486 7.39611 16.3446C7.65211 17.2086 8.08411 18.0406 8.69211 18.8406C9.30011 19.6086 10.1161 20.2326 11.1401 20.7126C9.73211 20.3286 8.61211 19.6886 7.78011 18.7926C6.94811 17.8646 6.35611 16.8246 6.00411 15.6726C5.68411 14.5206 5.62011 13.3366 5.81211 12.1206C6.00411 10.8726 6.43611 9.73657 7.10811 8.71257C7.81211 7.65657 8.74011 6.80857 9.89211 6.16857C11.0441 5.49657 12.4201 5.16057 14.0201 5.16057C15.5561 5.16057 16.9481 5.38457 18.1961 5.83257C19.4441 6.28057 20.4841 6.95257 21.3161 7.84857L24.4361 6.07257C24.0521 6.42457 23.7641 6.76057 23.5721 7.08057C23.4121 7.36857 23.3321 7.78457 23.3321 8.32857V24.5046C23.3321 25.8486 23.3961 26.9366 23.5241 27.7686C23.6521 28.5686 24.0361 29.0646 24.6761 29.2566ZM19.7801 25.8966C19.8121 25.3526 19.8281 24.8246 19.8281 24.3126C19.8281 23.8006 19.8281 23.2886 19.8281 22.7766H12.2441C11.3801 23.8326 10.4841 24.7606 9.55611 25.5606C10.5801 26.1686 11.6041 26.7766 12.6281 27.3846C13.6521 27.9926 14.5801 28.4406 15.4121 28.7286C16.7561 29.2406 17.7801 29.2886 18.4841 28.8726C19.1881 28.4246 19.6201 27.4326 19.7801 25.8966ZM19.3961 11.7366C18.7241 12.7606 18.0681 13.8166 17.4281 14.9046C16.7881 15.9606 16.1481 17.0166 15.5081 18.0726H19.8281V13.3686C19.7961 12.7606 19.6521 12.2166 19.3961 11.7366ZM14.7401 19.2246H19.8281V18.8406H15.0281L14.7401 19.2246ZM35.7026 26.6166C35.7026 27.9926 35.8466 29.1926 36.1346 30.2166C36.4546 31.2086 36.6786 32.0566 36.8066 32.7606C36.2626 33.6886 35.6386 34.7286 34.9346 35.8806C34.2626 37.0646 33.5586 38.0406 32.8226 38.8086C32.2466 38.2006 31.5106 37.5286 30.6146 36.7926C29.7506 36.0566 28.8546 35.4806 27.9266 35.0646C27.3826 34.8086 26.9666 34.8406 26.6786 35.1606C26.4226 35.4806 26.2946 35.8966 26.2946 36.4086C26.2946 36.9846 26.4546 37.4966 26.7746 37.9446C27.0946 38.3926 27.4946 38.7446 27.9746 39.0006C28.4866 39.2886 29.0466 39.4486 29.6546 39.4806C30.2626 39.5126 30.8546 39.4166 31.4306 39.1926C30.9826 39.5126 30.4386 39.6886 29.7986 39.7206C29.1906 39.7526 28.5986 39.6566 28.0226 39.4326C27.4466 39.2086 26.9346 38.8566 26.4866 38.3766C26.0386 37.8966 25.7506 37.2886 25.6226 36.5526C25.5586 36.2326 25.5586 35.8966 25.6226 35.5446C25.7186 35.1926 25.8786 34.8886 26.1026 34.6326C26.1666 34.5366 26.3266 34.3926 26.5826 34.2006C26.8386 34.0406 27.1266 33.8486 27.4466 33.6246C27.7666 33.4326 28.0866 33.2406 28.4066 33.0486C28.7586 32.8886 29.0306 32.7606 29.2226 32.6646C29.4466 32.5686 29.7026 32.3926 29.9906 32.1366C30.3106 31.8806 30.6146 31.6086 30.9026 31.3206C31.1906 31.0326 31.4466 30.7446 31.6706 30.4566C31.8946 30.1366 32.0546 29.8486 32.1506 29.5926V29.0646C31.7346 29.8006 31.2066 30.4726 30.5666 31.0806C29.9586 31.6886 29.3826 32.1686 28.8386 32.5206C28.0706 31.9446 27.3986 31.3046 26.8226 30.6006C26.2786 29.8646 26.0066 29.1766 26.0066 28.5366C25.8786 28.7926 25.6866 28.9846 25.4306 29.1126C25.1746 29.2406 24.9186 29.2886 24.6626 29.2566C25.2386 28.9046 25.6066 28.3126 25.7666 27.4806C25.9266 26.6486 26.0066 25.6566 26.0066 24.5046V16.0566C26.0066 15.8326 26.0386 15.6086 26.1026 15.3846C26.1986 15.1286 26.4066 14.9206 26.7266 14.7606L30.9026 12.3126C31.4146 12.4726 31.9106 12.6486 32.3906 12.8406C32.8706 13.0326 33.3506 13.2086 33.8306 13.3686C34.3106 13.4966 34.7906 13.5766 35.2706 13.6086C35.7826 13.6406 36.2786 13.5606 36.7586 13.3686C36.4066 13.7206 36.1346 14.0406 35.9426 14.3286C35.7826 14.6166 35.7026 15.0326 35.7026 15.5766V26.6166ZM30.8546 29.2566C31.1746 29.0646 31.4306 28.7766 31.6226 28.3926C31.8146 27.9766 31.9426 27.5446 32.0066 27.0966C32.0706 26.6166 32.1026 26.1526 32.1026 25.7046C32.1346 25.2566 32.1506 24.8566 32.1506 24.5046V16.9686C32.1506 16.7766 32.1666 16.6326 32.1986 16.5366L29.5106 15.5286V24.4086C29.5106 25.7846 29.5586 26.8886 29.6546 27.7206C29.7826 28.5526 30.1826 29.0646 30.8546 29.2566ZM30.3266 32.7126C30.4866 32.8086 30.6946 32.9366 30.9506 33.0966C31.2386 33.2566 31.5266 33.4486 31.8146 33.6726C32.1346 33.8966 32.4546 34.1366 32.7746 34.3926C33.0946 34.6486 33.3666 34.8886 33.5906 35.1126C33.5266 34.7926 33.4306 34.4086 33.3026 33.9606C33.1746 33.5446 33.0466 33.1286 32.9186 32.7126C32.7906 32.3286 32.6626 31.9766 32.5346 31.6566C32.4386 31.3046 32.3426 31.0326 32.2466 30.8406C31.9266 31.2566 31.6226 31.6086 31.3346 31.8966C31.0466 32.1846 30.7106 32.4566 30.3266 32.7126ZM42.9952 29.2566C43.1872 29.0966 43.3632 28.8406 43.5232 28.4886C43.6832 28.1046 43.8272 27.7046 43.9552 27.2886C44.0832 26.8406 44.1792 26.3926 44.2432 25.9446C44.3072 25.4966 44.3232 25.1126 44.2912 24.7926C44.3872 24.8886 44.4672 25.0486 44.5312 25.2726C44.6272 25.4646 44.7072 25.6726 44.7712 25.8966C44.8352 26.0886 44.8832 26.2806 44.9152 26.4726C44.9792 26.6326 45.0112 26.7286 45.0112 26.7606C45.0112 27.3366 44.8672 27.9126 44.5792 28.4886C44.3232 29.0646 43.9872 29.6086 43.5712 30.1206C43.1872 30.6326 42.7552 31.0966 42.2752 31.5126C41.8272 31.9286 41.3952 32.2646 40.9792 32.5206C40.2112 31.9446 39.5392 31.3046 38.9632 30.6006C38.3872 29.8646 38.0992 29.1766 38.0992 28.5366C38.0032 28.7926 37.8272 28.9846 37.5712 29.1126C37.3152 29.2406 37.0592 29.2886 36.8032 29.2566C37.3792 28.9046 37.7312 28.3126 37.8592 27.4806C38.0192 26.6486 38.0992 25.6566 38.0992 24.5046V16.0566C38.0992 15.8326 38.1472 15.6086 38.2432 15.3846C38.3392 15.1286 38.5312 14.9206 38.8192 14.7606L43.1392 12.3126C43.5872 12.5686 43.9872 12.8086 44.3392 13.0326C44.6912 13.2246 45.0432 13.3846 45.3952 13.5126C45.7792 13.6406 46.1632 13.7046 46.5472 13.7046C46.9312 13.6726 47.3952 13.5606 47.9392 13.3686C46.9152 14.4566 45.7952 15.5926 44.5792 16.7766C43.3952 17.9606 42.4192 19.1766 41.6512 20.4246V24.4086C41.6512 25.7846 41.6992 26.8886 41.7952 27.7206C41.9232 28.5526 42.3232 29.0646 42.9952 29.2566ZM41.6512 19.0326C41.9072 18.5846 42.1952 18.1526 42.5152 17.7366C42.8352 17.2886 43.1552 16.8566 43.4752 16.4406L41.6512 15.4806V19.0326ZM58.233 29.2566C58.713 28.9686 59.113 28.6166 59.433 28.2006C59.753 27.7526 60.041 27.2566 60.297 26.7126C60.297 27.2886 60.153 27.8646 59.865 28.4406C59.609 29.0166 59.273 29.5606 58.857 30.0726C58.473 30.5846 58.041 31.0646 57.561 31.5126C57.081 31.9286 56.633 32.2646 56.217 32.5206C55.449 31.9446 54.777 31.3046 54.201 30.6006C53.657 29.8646 53.385 29.1766 53.385 28.5366V22.9206V16.8726C53.385 16.7766 53.385 16.6806 53.385 16.5846C53.417 16.4886 53.449 16.3766 53.481 16.2486L53.241 16.1046C52.921 15.9766 52.617 16.2486 52.329 16.9206C52.041 17.5926 51.785 18.4566 51.561 19.5126C51.369 20.5366 51.193 21.6406 51.033 22.8246C50.873 23.9766 50.777 24.9846 50.745 25.8486C50.809 27.1606 50.953 28.0566 51.177 28.5366C51.401 29.0166 51.817 29.2566 52.425 29.2566L50.073 32.5206C49.177 32.0086 48.473 31.3686 47.961 30.6006C47.481 29.8006 47.241 29.1126 47.241 28.5366C47.113 28.7926 46.921 28.9846 46.665 29.1126C46.409 29.2406 46.153 29.2886 45.897 29.2566C46.473 28.9046 46.841 28.3126 47.001 27.4806C47.161 26.6486 47.241 25.6566 47.241 24.5046V16.8726C47.241 16.7766 47.241 16.6646 47.241 16.5366C47.273 16.4086 47.321 16.2806 47.385 16.1526L45.897 15.1446L48.537 12.3126C48.665 12.4406 48.841 12.6006 49.065 12.7926C49.289 12.9526 49.545 13.1126 49.833 13.2726C50.121 13.4006 50.425 13.4966 50.745 13.5606C51.097 13.5926 51.449 13.5286 51.801 13.3686C51.449 13.7206 51.177 14.0406 50.985 14.3286C50.825 14.6166 50.745 15.0326 50.745 15.5766V20.1846C50.841 19.3206 50.969 18.4726 51.129 17.6406C51.289 16.8086 51.481 16.0406 51.705 15.3366C51.961 14.6006 52.249 13.9766 52.569 13.4646C52.889 12.9526 53.257 12.5686 53.673 12.3126C54.121 12.5686 54.505 12.8086 54.825 13.0326C55.145 13.2566 55.449 13.4326 55.737 13.5606C56.057 13.6566 56.377 13.7046 56.697 13.7046C57.049 13.6726 57.481 13.5606 57.993 13.3686C57.641 13.7206 57.369 14.0406 57.177 14.3286C56.985 14.6166 56.889 15.0326 56.889 15.5766L56.937 24.4086C56.937 25.7846 56.985 26.8886 57.081 27.7206C57.177 28.5526 57.561 29.0646 58.233 29.2566ZM69.2651 24.8406C69.2651 25.2886 68.9771 25.9126 68.4011 26.7126C67.8251 27.4806 67.1531 28.2806 66.3851 29.1126C65.6171 29.9126 64.8491 30.6486 64.0811 31.3206C63.3131 31.9606 62.7531 32.3606 62.4011 32.5206C62.1131 32.3286 61.8091 32.0886 61.4891 31.8006C61.1691 31.4806 60.8651 31.1446 60.5771 30.7926C60.2891 30.4406 60.0491 30.0726 59.8571 29.6886C59.6651 29.3046 59.5691 28.9206 59.5691 28.5366C59.4411 28.7926 59.2491 28.9846 58.9931 29.1126C58.7371 29.2406 58.4811 29.2886 58.2251 29.2566C58.8011 28.9046 59.1691 28.3126 59.3291 27.4806C59.4891 26.6486 59.5691 25.6566 59.5691 24.5046V16.2486C59.5691 16.0246 59.6011 15.8006 59.6651 15.5766C59.7611 15.3206 59.9531 15.1126 60.2411 14.9526L63.1211 13.7046L60.4811 11.4486C60.0971 11.0646 59.9371 10.6006 60.0011 10.0566C60.0971 9.48057 60.3211 8.92057 60.6731 8.37657C61.0251 7.80057 61.4731 7.32057 62.0171 6.93657C62.5931 6.52057 63.2011 6.29657 63.8411 6.26457C63.5531 6.36057 63.2651 6.48857 62.9771 6.64857C62.6891 6.80857 62.4491 7.00057 62.2571 7.22457C62.0971 7.41657 62.0171 7.64057 62.0171 7.89657C62.0491 8.12057 62.2091 8.34457 62.4971 8.56857L68.4011 13.3686C68.8811 13.7206 69.1371 14.2166 69.1691 14.8566C69.2011 15.4646 69.2171 16.0086 69.2171 16.4886L69.2651 24.8406ZM65.7131 17.9286C65.7131 17.1926 65.6811 16.6326 65.6171 16.2486C65.5531 15.8646 65.2971 15.4966 64.8491 15.1446L63.8891 14.3286C63.3451 14.8086 63.0731 15.2726 63.0731 15.7206V24.4086C63.0731 25.7846 63.1211 26.8886 63.2171 27.7206C63.3451 28.5526 63.7451 29.0646 64.4171 29.2566C64.7051 29.0966 64.9291 28.8246 65.0891 28.4406C65.2491 28.0566 65.3771 27.6566 65.4731 27.2406C65.5691 26.7926 65.6331 26.3606 65.6651 25.9446C65.6971 25.4966 65.7131 25.1446 65.7131 24.8886V17.9286ZM76.1827 29.2566C76.3747 29.0966 76.5507 28.8406 76.7107 28.4886C76.8707 28.1046 77.0147 27.7046 77.1427 27.2886C77.2707 26.8406 77.3667 26.3926 77.4307 25.9446C77.4947 25.4966 77.5107 25.1126 77.4787 24.7926C77.5747 24.8886 77.6547 25.0486 77.7187 25.2726C77.8147 25.4646 77.8947 25.6726 77.9587 25.8966C78.0227 26.0886 78.0707 26.2806 78.1027 26.4726C78.1667 26.6326 78.1987 26.7286 78.1987 26.7606C78.1987 27.3366 78.0547 27.9126 77.7667 28.4886C77.5107 29.0646 77.1747 29.6086 76.7587 30.1206C76.3747 30.6326 75.9427 31.0966 75.4627 31.5126C75.0147 31.9286 74.5827 32.2646 74.1667 32.5206C73.3987 31.9446 72.7267 31.3046 72.1507 30.6006C71.5747 29.8646 71.2867 29.1766 71.2867 28.5366C71.1907 28.7926 71.0147 28.9846 70.7587 29.1126C70.5027 29.2406 70.2467 29.2886 69.9907 29.2566C70.5667 28.9046 70.9187 28.3126 71.0467 27.4806C71.2067 26.6486 71.2867 25.6566 71.2867 24.5046V16.0566C71.2867 15.8326 71.3347 15.6086 71.4307 15.3846C71.5267 15.1286 71.7187 14.9206 72.0067 14.7606L76.3267 12.3126C76.7747 12.5686 77.1747 12.8086 77.5267 13.0326C77.8787 13.2246 78.2307 13.3846 78.5827 13.5126C78.9667 13.6406 79.3507 13.7046 79.7347 13.7046C80.1187 13.6726 80.5827 13.5606 81.1267 13.3686C80.1027 14.4566 78.9827 15.5926 77.7667 16.7766C76.5827 17.9606 75.6067 19.1766 74.8387 20.4246V24.4086C74.8387 25.7846 74.8867 26.8886 74.9827 27.7206C75.1107 28.5526 75.5107 29.0646 76.1827 29.2566ZM74.8387 19.0326C75.0947 18.5846 75.3827 18.1526 75.7027 17.7366C76.0227 17.2886 76.3427 16.8566 76.6627 16.4406L74.8387 15.4806V19.0326ZM111.551 20.4726C111.743 21.2726 111.583 22.2646 111.071 23.4486C110.591 24.6006 109.935 25.7686 109.103 26.9526C108.303 28.1366 107.423 29.2406 106.463 30.2646C105.503 31.2886 104.639 32.0406 103.871 32.5206C103.103 32.2326 102.079 31.8166 100.799 31.2726C99.5192 30.7286 98.1592 30.1366 96.7192 29.4966C95.9832 30.8086 95.1672 31.8006 94.2712 32.4726C93.4072 33.1446 92.3832 33.4486 91.1992 33.3846C90.3672 33.3206 89.6472 33.0806 89.0392 32.6646C88.4312 32.2486 87.9672 31.7526 87.6472 31.1766C87.3272 30.5686 87.1672 29.8966 87.1672 29.1606C87.1672 28.4246 87.3592 27.7206 87.7432 27.0486C87.9352 26.7286 88.2072 26.3446 88.5592 25.8966C88.9432 25.4486 89.3592 25.0326 89.8072 24.6486C90.2552 24.2646 90.7192 23.9766 91.1992 23.7846C91.7112 23.5926 92.1592 23.5766 92.5432 23.7366C93.1192 23.9926 93.8072 24.3126 94.6072 24.6966C95.4392 25.0486 96.3192 25.4326 97.2472 25.8486C97.4072 25.4006 97.5672 24.9686 97.7272 24.5526C97.8872 24.1046 98.0632 23.6566 98.2552 23.2086C97.2312 23.0166 96.2072 22.8086 95.1832 22.5846C94.1592 22.3286 93.1832 22.0246 92.2552 21.6726C91.3272 21.3206 90.4792 20.8886 89.7112 20.3766C88.9432 19.8646 88.3032 19.2406 87.7912 18.5046C87.3112 17.7686 86.9912 16.9046 86.8312 15.9126C86.7032 14.8886 86.7992 13.6886 87.1192 12.3126C87.2152 13.9126 87.6472 15.1766 88.4152 16.1046C89.1832 17.0006 90.1432 17.7046 91.2952 18.2166C92.4792 18.7286 93.7912 19.1126 95.2312 19.3686C96.6712 19.5926 98.0952 19.8166 99.5032 20.0406C99.5672 19.8806 99.6312 19.7366 99.6952 19.6086C99.7912 19.4486 99.8712 19.2886 99.9352 19.1286C98.5272 18.8406 97.1032 18.5526 95.6632 18.2646C94.2552 17.9766 92.9752 17.5926 91.8232 17.1126C90.6712 16.6006 89.7272 15.9606 88.9912 15.1926C88.2872 14.3926 87.9512 13.3366 87.9832 12.0246C88.0152 11.2886 88.2392 10.6326 88.6552 10.0566C89.0712 9.44857 89.6152 8.90457 90.2872 8.42457C90.9592 7.94457 91.6952 7.52857 92.4952 7.17657C93.3272 6.79257 94.1432 6.47257 94.9432 6.21657C95.7432 5.96057 96.4952 5.75257 97.1992 5.59257C97.9352 5.40057 98.5272 5.25657 98.9752 5.16057C99.1672 5.28857 99.4072 5.59257 99.6952 6.07257C100.015 6.52057 100.399 7.00057 100.847 7.51257C101.295 8.02457 101.823 8.48857 102.431 8.90457C103.039 9.28857 103.759 9.44857 104.591 9.38457C105.583 9.32057 106.207 8.96857 106.463 8.32857C106.751 7.65657 106.767 6.90457 106.511 6.07257C107.119 6.68057 107.327 7.43257 107.135 8.32857C106.943 9.19257 106.575 10.0886 106.031 11.0166C105.487 11.9446 104.879 12.8566 104.207 13.7526C103.567 14.6486 103.071 15.4166 102.719 16.0566C103.775 16.2806 104.799 16.5206 105.791 16.7766C106.783 17.0006 107.679 17.2886 108.479 17.6406C109.311 17.9606 109.983 18.3606 110.495 18.8406C111.039 19.2886 111.391 19.8326 111.551 20.4726ZM91.2472 32.7126C92.3672 32.7766 93.2792 32.4886 93.9832 31.8486C94.6872 31.1766 95.3272 30.2646 95.9032 29.1126C95.0712 28.7606 94.2712 28.4086 93.5032 28.0566C92.7672 27.7046 92.0792 27.3846 91.4392 27.0966C90.8632 26.8406 90.3352 26.6966 89.8552 26.6646C89.4072 26.6326 88.9912 26.9046 88.6072 27.4806C88.2552 28.0246 88.0792 28.6006 88.0792 29.2086C88.0792 29.7846 88.2072 30.3286 88.4632 30.8406C88.7192 31.3526 89.0872 31.7846 89.5672 32.1366C90.0472 32.4886 90.6072 32.6806 91.2472 32.7126ZM92.5432 11.9766C92.9272 12.5206 93.4392 12.9846 94.0792 13.3686C94.7192 13.7526 95.4232 14.0886 96.1912 14.3766C96.9912 14.6646 97.8392 14.9366 98.7352 15.1926C99.6632 15.4166 100.607 15.6246 101.567 15.8166C101.663 15.5926 101.775 15.3686 101.903 15.1446C102.031 14.9206 102.159 14.6966 102.287 14.4726C101.167 14.2486 100.175 13.8326 99.3112 13.2246C98.4472 12.6166 97.6472 12.0246 96.9112 11.4486C96.2072 10.8406 95.5352 10.3606 94.8952 10.0086C94.2872 9.62457 93.6472 9.56057 92.9752 9.81657C93.3272 9.40057 93.7112 9.19257 94.1272 9.19257C94.5752 9.16057 95.0392 9.25657 95.5192 9.48057C95.9992 9.67257 96.4952 9.96057 97.0072 10.3446C97.5512 10.6966 98.0952 11.0486 98.6392 11.4006C99.2152 11.7526 99.8072 12.0566 100.415 12.3126C101.055 12.5686 101.711 12.6966 102.383 12.6966C101.679 12.5366 101.023 12.2806 100.415 11.9286C99.8072 11.5766 99.2312 11.1926 98.6872 10.7766C98.1752 10.3606 97.6952 9.94457 97.2472 9.52857C96.7992 9.11257 96.3992 8.77657 96.0472 8.52057C95.5352 8.13657 94.9592 7.96057 94.3192 7.99257C93.6792 7.99257 93.1352 8.16857 92.6872 8.52057C92.2392 8.84057 91.9512 9.30457 91.8232 9.91257C91.7272 10.5206 91.9672 11.2086 92.5432 11.9766ZM104.015 28.7286C104.271 28.8246 104.527 28.8566 104.783 28.8246C105.071 28.7926 105.327 28.7126 105.551 28.5846C105.807 28.4566 105.999 28.2806 106.127 28.0566C106.287 27.8326 106.367 27.5766 106.367 27.2886C106.335 26.7126 106.127 26.2166 105.743 25.8006C105.391 25.3846 104.895 25.0326 104.255 24.7446C103.615 24.4566 102.879 24.2166 102.047 24.0246C101.215 23.8006 100.319 23.5926 99.3592 23.4006C99.1992 23.9126 99.0232 24.4086 98.8312 24.8886C98.6392 25.3686 98.4472 25.8486 98.2552 26.3286C99.3752 26.8086 100.447 27.2726 101.471 27.7206C102.527 28.1366 103.375 28.4726 104.015 28.7286ZM107.615 24.6486C107.711 23.6886 107.567 22.9046 107.183 22.2966C106.799 21.6886 106.271 21.1926 105.599 20.8086C104.959 20.4246 104.223 20.1366 103.391 19.9446C102.591 19.7206 101.823 19.5286 101.087 19.3686C101.023 19.5286 100.959 19.6726 100.895 19.8006C100.831 19.9286 100.767 20.0726 100.703 20.2326C101.535 20.3926 102.319 20.5846 103.055 20.8086C103.823 21.0006 104.511 21.2726 105.119 21.6246C105.727 21.9446 106.239 22.3606 106.655 22.8726C107.103 23.3526 107.423 23.9446 107.615 24.6486ZM123.999 29.2566C124.479 28.9686 124.879 28.6166 125.199 28.2006C125.519 27.7526 125.807 27.2566 126.063 26.7126C126.063 27.2886 125.919 27.8646 125.631 28.4406C125.375 29.0166 125.039 29.5606 124.623 30.0726C124.239 30.5846 123.807 31.0646 123.327 31.5126C122.847 31.9286 122.399 32.2646 121.983 32.5206C121.311 32.0086 120.719 31.4326 120.207 30.7926C119.695 30.1526 119.359 29.5446 119.199 28.9686C118.783 29.7046 118.255 30.3926 117.615 31.0326C116.975 31.6726 116.383 32.1686 115.839 32.5206C115.071 31.9446 114.399 31.3046 113.823 30.6006C113.279 29.8646 113.007 29.1766 113.007 28.5366C112.879 28.7926 112.687 28.9846 112.431 29.1126C112.175 29.2406 111.919 29.2886 111.663 29.2566C112.239 28.9046 112.607 28.3126 112.767 27.4806C112.927 26.6486 113.007 25.6566 113.007 24.5046V16.8726C113.007 16.7766 113.007 16.6646 113.007 16.5366C113.039 16.4086 113.087 16.2806 113.151 16.1526L111.663 15.1446L114.303 12.3126C114.431 12.4406 114.607 12.6006 114.831 12.7926C115.055 12.9526 115.311 13.1126 115.599 13.2726C115.887 13.4006 116.191 13.4966 116.511 13.5606C116.863 13.5926 117.215 13.5286 117.567 13.3686C117.215 13.7206 116.943 14.0406 116.751 14.3286C116.591 14.6166 116.511 15.0326 116.511 15.5766V24.4086C116.511 25.7846 116.559 26.8886 116.655 27.7206C116.783 28.5526 117.183 29.0646 117.855 29.2566C118.175 29.0646 118.431 28.7766 118.623 28.3926C118.815 27.9766 118.943 27.5446 119.007 27.0966C119.071 26.6486 119.103 26.2006 119.103 25.7526C119.135 25.2726 119.151 24.8566 119.151 24.5046V18.6486V16.8726C119.151 16.6806 119.183 16.4726 119.247 16.2486C119.343 15.9926 119.551 15.7686 119.871 15.5766L120.111 15.4806C119.439 15.2566 118.815 15.1766 118.239 15.2406C117.695 15.2726 117.391 15.5766 117.327 16.1526C117.263 15.7366 117.295 15.3526 117.423 15.0006C117.583 14.6486 117.791 14.3126 118.047 13.9926C118.303 13.6726 118.575 13.3846 118.863 13.1286C119.183 12.8406 119.471 12.5686 119.727 12.3126C120.431 12.4726 121.071 12.6966 121.647 12.9846C122.223 13.2406 122.927 13.3686 123.759 13.3686C123.439 13.6886 123.183 14.1206 122.991 14.6646C122.799 15.2086 122.687 15.7046 122.655 16.1526L122.703 24.4086C122.703 25.7846 122.751 26.8886 122.847 27.7206C122.943 28.5526 123.327 29.0646 123.999 29.2566ZM136.327 29.2566C136.839 28.9686 137.255 28.6166 137.575 28.2006C137.895 27.7526 138.183 27.2566 138.439 26.7126C138.439 27.2886 138.295 27.8646 138.007 28.4406C137.719 29.0166 137.367 29.5606 136.951 30.0726C136.567 30.5846 136.135 31.0646 135.655 31.5126C135.175 31.9286 134.727 32.2646 134.311 32.5206C133.671 32.0086 133.079 31.4326 132.535 30.7926C132.023 30.1526 131.687 29.5446 131.527 28.9686C131.111 29.7046 130.583 30.3926 129.943 31.0326C129.303 31.6726 128.711 32.1686 128.167 32.5206C127.399 31.9446 126.727 31.3046 126.151 30.6006C125.607 29.8646 125.335 29.1766 125.335 28.5366C125.239 28.7926 125.047 28.9846 124.759 29.1126C124.503 29.2406 124.247 29.2886 123.991 29.2566C124.567 28.9046 124.935 28.3126 125.095 27.4806C125.255 26.6486 125.335 25.6566 125.335 24.5046V20.1366C125.335 19.9446 125.367 19.7206 125.431 19.4646C125.527 19.2086 125.735 19.0006 126.055 18.8406L127.399 18.2166C126.855 18.2166 126.439 18.0726 126.151 17.7846C125.863 17.4966 125.671 17.1606 125.575 16.7766C125.479 16.3926 125.479 15.9926 125.575 15.5766C125.703 15.1286 125.895 14.7286 126.151 14.3766C126.503 13.9286 126.903 13.5286 127.351 13.1766C127.831 12.7926 128.279 12.5046 128.695 12.3126C129.207 12.4726 129.783 12.6486 130.423 12.8406C131.063 13.0326 131.719 13.2086 132.391 13.3686C133.063 13.4966 133.719 13.5766 134.359 13.6086C135.031 13.6406 135.607 13.5606 136.087 13.3686C135.735 13.7206 135.463 14.0406 135.271 14.3286C135.111 14.6166 135.031 15.0326 135.031 15.5766V24.4086C135.031 25.7846 135.079 26.8886 135.175 27.7206C135.303 28.5526 135.687 29.0646 136.327 29.2566ZM130.183 29.2566C130.535 29.0646 130.791 28.7766 130.951 28.3926C131.143 27.9766 131.271 27.5446 131.335 27.0966C131.431 26.6486 131.479 26.2006 131.479 25.7526C131.479 25.2726 131.479 24.8566 131.479 24.5046V18.6486V16.8726C131.479 16.8086 131.495 16.7446 131.527 16.6806C130.951 16.5206 130.343 16.3606 129.703 16.2006C129.095 16.0406 128.423 15.8486 127.687 15.6246C127.303 15.5286 126.999 15.5606 126.775 15.7206C126.551 15.8806 126.407 16.0886 126.343 16.3446C126.311 16.6006 126.359 16.8566 126.487 17.1126C126.647 17.3686 126.903 17.5286 127.255 17.5926C127.639 17.6566 128.055 17.6246 128.503 17.4966C128.951 17.3686 129.383 17.2246 129.799 17.0646L130.615 16.6806C130.487 16.8406 130.327 17.0166 130.135 17.2086C129.943 17.4006 129.751 17.6246 129.559 17.8806C129.367 18.1046 129.191 18.3606 129.031 18.6486C128.903 18.9366 128.839 19.2566 128.839 19.6086V24.4086C128.839 25.7846 128.887 26.8886 128.983 27.7206C129.111 28.5526 129.511 29.0646 130.183 29.2566ZM162.642 0.408567C163.698 0.728567 164.45 1.24057 164.898 1.94457C165.378 2.61657 165.602 3.36857 165.57 4.20057C165.57 5.00057 165.362 5.83257 164.946 6.69657C164.53 7.52857 163.97 8.24857 163.266 8.85657C162.338 9.17657 161.282 9.30457 160.098 9.24057C158.946 9.14457 157.762 8.96857 156.546 8.71257V23.4486C156.77 23.8006 157.058 24.0726 157.41 24.2646C157.794 24.4566 158.162 24.7606 158.514 25.1766L156.546 27.6246V28.9206C157.186 28.9846 157.842 28.9206 158.514 28.7286C159.218 28.5366 159.874 28.1846 160.482 27.6726C161.122 27.1606 161.666 26.4726 162.114 25.6086C162.594 24.7446 162.93 23.6566 163.122 22.3446C163.25 23.7526 163.138 25.0326 162.786 26.1846C162.466 27.3046 161.97 28.2966 161.298 29.1606C160.626 30.0246 159.842 30.7446 158.946 31.3206C158.082 31.8966 157.17 32.2966 156.21 32.5206C153.81 32.1366 151.762 31.3846 150.066 30.2646C148.402 29.1446 147.074 27.8166 146.082 26.2806C145.09 24.7126 144.434 23.0326 144.114 21.2406C143.794 19.4166 143.762 17.6406 144.018 15.9126C144.306 14.1526 144.882 12.5046 145.746 10.9686C146.642 9.43257 147.794 8.16857 149.202 7.17657C148.754 7.11257 148.322 7.08057 147.906 7.08057C147.522 7.08057 147.154 7.11257 146.802 7.17657C146.322 7.27257 145.874 7.46457 145.458 7.75257C145.042 8.00857 144.738 8.32857 144.546 8.71257C144.354 9.06457 144.306 9.43257 144.402 9.81657C144.53 10.2006 144.882 10.5526 145.458 10.8726C144.946 10.7766 144.53 10.5686 144.21 10.2486C143.922 9.92857 143.73 9.57657 143.634 9.19257C143.538 8.77657 143.538 8.34457 143.634 7.89657C143.73 7.44857 143.922 7.04857 144.21 6.69657C144.338 6.53657 144.434 6.32857 144.498 6.07257C144.562 5.81657 144.626 5.54457 144.69 5.25657C144.786 4.96857 144.898 4.69657 145.026 4.44057C145.186 4.15257 145.426 3.89657 145.746 3.67257C146.802 3.38457 148.034 3.36857 149.442 3.62457C150.882 3.84857 152.338 4.15257 153.81 4.53657C155.314 4.88857 156.754 5.20857 158.13 5.49657C159.506 5.75257 160.706 5.75257 161.73 5.49657C162.402 5.33657 162.962 5.06457 163.41 4.68057C163.89 4.26457 164.194 3.81657 164.322 3.33657C164.482 2.82457 164.434 2.31257 164.178 1.80057C163.922 1.25657 163.41 0.792568 162.642 0.408567ZM151.218 7.51257C150.002 8.56857 149.074 9.92857 148.434 11.5926C147.826 13.2566 147.506 15.0006 147.474 16.8246C147.474 18.6166 147.762 20.3766 148.338 22.1046C148.946 23.8326 149.858 25.2726 151.074 26.4246C151.298 25.7846 151.474 25.1446 151.602 24.5046C151.762 23.8646 151.842 23.3686 151.842 23.0166V9.96057C151.074 10.7606 150.386 11.7686 149.778 12.9846C149.202 14.1686 148.802 15.5446 148.578 17.1126C148.514 16.3126 148.546 15.5126 148.674 14.7126C148.834 13.8806 149.058 13.0806 149.346 12.3126C149.634 11.5126 149.986 10.7766 150.402 10.1046C150.818 9.40057 151.298 8.77657 151.842 8.23257V7.65657C151.746 7.62457 151.634 7.60857 151.506 7.60857C151.41 7.57657 151.314 7.54457 151.218 7.51257ZM155.778 27.4326C155.554 27.0486 155.25 26.7446 154.866 26.5206C154.514 26.2646 154.178 25.9606 153.858 25.6086L155.778 23.1606V8.52057C155.714 8.52057 155.634 8.52057 155.538 8.52057C155.474 8.48857 155.41 8.47257 155.346 8.47257V21.9126C155.346 22.2006 155.25 22.4886 155.058 22.7766C154.866 23.0326 154.69 23.2726 154.53 23.4966L151.746 27.0006C152.898 27.9606 154.242 28.5526 155.778 28.7766V27.4326ZM175.561 29.2566C176.073 28.9686 176.489 28.6166 176.809 28.2006C177.129 27.7526 177.417 27.2566 177.673 26.7126C177.673 27.2886 177.529 27.8646 177.241 28.4406C176.953 29.0166 176.601 29.5606 176.185 30.0726C175.801 30.5846 175.369 31.0646 174.889 31.5126C174.409 31.9286 173.961 32.2646 173.545 32.5206C172.905 32.0086 172.313 31.4326 171.769 30.7926C171.257 30.1526 170.921 29.5446 170.761 28.9686C170.345 29.7046 169.817 30.3926 169.177 31.0326C168.537 31.6726 167.945 32.1686 167.401 32.5206C166.633 31.9446 165.961 31.3046 165.385 30.6006C164.841 29.8646 164.569 29.1766 164.569 28.5366C164.473 28.7926 164.281 28.9846 163.993 29.1126C163.737 29.2406 163.481 29.2886 163.225 29.2566C163.801 28.9046 164.169 28.3126 164.329 27.4806C164.489 26.6486 164.569 25.6566 164.569 24.5046V20.1366C164.569 19.9446 164.601 19.7206 164.665 19.4646C164.761 19.2086 164.969 19.0006 165.289 18.8406L166.633 18.2166C166.089 18.2166 165.673 18.0726 165.385 17.7846C165.097 17.4966 164.905 17.1606 164.809 16.7766C164.713 16.3926 164.713 15.9926 164.809 15.5766C164.937 15.1286 165.129 14.7286 165.385 14.3766C165.737 13.9286 166.137 13.5286 166.585 13.1766C167.065 12.7926 167.513 12.5046 167.929 12.3126C168.441 12.4726 169.017 12.6486 169.657 12.8406C170.297 13.0326 170.953 13.2086 171.625 13.3686C172.297 13.4966 172.953 13.5766 173.593 13.6086C174.265 13.6406 174.841 13.5606 175.321 13.3686C174.969 13.7206 174.697 14.0406 174.505 14.3286C174.345 14.6166 174.265 15.0326 174.265 15.5766V24.4086C174.265 25.7846 174.313 26.8886 174.409 27.7206C174.537 28.5526 174.921 29.0646 175.561 29.2566ZM169.417 29.2566C169.769 29.0646 170.025 28.7766 170.185 28.3926C170.377 27.9766 170.505 27.5446 170.569 27.0966C170.665 26.6486 170.713 26.2006 170.713 25.7526C170.713 25.2726 170.713 24.8566 170.713 24.5046V18.6486V16.8726C170.713 16.8086 170.729 16.7446 170.761 16.6806C170.185 16.5206 169.577 16.3606 168.937 16.2006C168.329 16.0406 167.657 15.8486 166.921 15.6246C166.537 15.5286 166.233 15.5606 166.009 15.7206C165.785 15.8806 165.641 16.0886 165.577 16.3446C165.545 16.6006 165.593 16.8566 165.721 17.1126C165.881 17.3686 166.137 17.5286 166.489 17.5926C166.873 17.6566 167.289 17.6246 167.737 17.4966C168.185 17.3686 168.617 17.2246 169.033 17.0646L169.849 16.6806C169.721 16.8406 169.561 17.0166 169.369 17.2086C169.177 17.4006 168.985 17.6246 168.793 17.8806C168.601 18.1046 168.425 18.3606 168.265 18.6486C168.137 18.9366 168.073 19.2566 168.073 19.6086V24.4086C168.073 25.7846 168.121 26.8886 168.217 27.7206C168.345 28.5526 168.745 29.0646 169.417 29.2566ZM181.745 29.2566C182.225 28.9686 182.625 28.6166 182.945 28.2006C183.265 27.7526 183.553 27.2566 183.809 26.7126C183.809 27.2886 183.665 27.8646 183.377 28.4406C183.121 29.0166 182.785 29.5606 182.369 30.0726C181.953 30.5846 181.505 31.0646 181.025 31.5126C180.577 31.9286 180.145 32.2646 179.729 32.5206C178.961 31.9446 178.289 31.3046 177.713 30.6006C177.169 29.8646 176.897 29.1766 176.897 28.5366C176.769 28.7926 176.577 28.9846 176.321 29.1126C176.065 29.2406 175.809 29.2886 175.553 29.2566C176.129 28.9046 176.497 28.3126 176.657 27.4806C176.817 26.6486 176.897 25.6566 176.897 24.5046V12.8886C176.705 12.8246 176.497 12.7606 176.273 12.6966C176.081 12.6006 175.873 12.4726 175.649 12.3126H176.897V9.81657C176.897 9.62457 176.929 9.40057 176.993 9.14457C177.089 8.88857 177.281 8.68057 177.569 8.52057L181.457 6.26457C181.105 6.64857 180.833 6.98457 180.641 7.27257C180.481 7.56057 180.401 7.97657 180.401 8.52057V12.3126H182.993C182.801 12.5046 182.577 12.6646 182.321 12.7926C182.065 12.8886 181.809 13.0166 181.553 13.1766C181.297 13.3046 181.057 13.4646 180.833 13.6566C180.641 13.8486 180.497 14.1366 180.401 14.5206V24.5046C180.401 25.8486 180.449 26.9366 180.545 27.7686C180.673 28.5686 181.073 29.0646 181.745 29.2566ZM187.933 29.2566C188.413 28.9686 188.813 28.6166 189.133 28.2006C189.453 27.7526 189.741 27.2566 189.997 26.7126C189.997 27.2886 189.853 27.8646 189.565 28.4406C189.309 29.0166 188.973 29.5606 188.557 30.0726C188.141 30.5846 187.693 31.0646 187.213 31.5126C186.765 31.9286 186.333 32.2646 185.917 32.5206C185.149 31.9446 184.477 31.3046 183.901 30.6006C183.357 29.8646 183.085 29.1766 183.085 28.5366C182.957 28.7926 182.765 28.9846 182.509 29.1126C182.253 29.2406 181.997 29.2886 181.741 29.2566C182.317 28.9046 182.685 28.3126 182.845 27.4806C183.005 26.6486 183.085 25.6566 183.085 24.5046V12.8886C182.893 12.8246 182.685 12.7606 182.461 12.6966C182.269 12.6006 182.061 12.4726 181.837 12.3126H183.085V9.81657C183.085 9.62457 183.117 9.40057 183.181 9.14457C183.277 8.88857 183.469 8.68057 183.757 8.52057L187.645 6.26457C187.293 6.64857 187.021 6.98457 186.829 7.27257C186.669 7.56057 186.589 7.97657 186.589 8.52057V12.3126H189.181C188.989 12.5046 188.765 12.6646 188.509 12.7926C188.253 12.8886 187.997 13.0166 187.741 13.1766C187.485 13.3046 187.245 13.4646 187.021 13.6566C186.829 13.8486 186.685 14.1366 186.589 14.5206V24.5046C186.589 25.8486 186.637 26.9366 186.733 27.7686C186.861 28.5686 187.261 29.0646 187.933 29.2566ZM200.024 13.3686C199.672 13.7206 199.4 14.0406 199.208 14.3286C199.048 14.6166 198.968 15.0326 198.968 15.5766V24.7446C198.936 25.2246 198.632 25.8646 198.056 26.6646C197.512 27.4326 196.872 28.2166 196.136 29.0166C195.4 29.8166 194.648 30.5526 193.88 31.2246C193.112 31.8966 192.52 32.3286 192.104 32.5206C191.336 31.9446 190.664 31.3046 190.088 30.6006C189.544 29.8646 189.272 29.1766 189.272 28.5366C189.144 28.7926 188.952 28.9846 188.696 29.1126C188.44 29.2406 188.184 29.2886 187.928 29.2566C188.504 28.9046 188.872 28.3126 189.032 27.4806C189.192 26.6486 189.272 25.6566 189.272 24.5046V16.0566C189.272 15.8326 189.304 15.6086 189.368 15.3846C189.464 15.1286 189.656 14.9206 189.944 14.7606L194.168 12.3126C194.68 12.4726 195.176 12.6486 195.656 12.8406C196.136 13.0326 196.616 13.2086 197.096 13.3686C197.576 13.4966 198.056 13.5766 198.536 13.6086C199.048 13.6406 199.544 13.5606 200.024 13.3686ZM195.416 16.8726C195.416 16.7126 195.432 16.6006 195.464 16.5366L192.776 15.5286V24.4086C192.776 25.7846 192.824 26.8886 192.92 27.7206C193.048 28.5526 193.448 29.0646 194.12 29.2566C194.408 29.0646 194.632 28.7926 194.792 28.4406C194.984 28.0886 195.128 27.7046 195.224 27.2886C195.32 26.8726 195.368 26.4566 195.368 26.0406C195.4 25.6246 195.416 25.2726 195.416 24.9846V16.8726ZM211.649 13.3686C211.297 13.7206 211.025 14.0406 210.833 14.3286C210.673 14.6166 210.593 15.0326 210.593 15.5766V24.7446C210.561 25.2246 210.257 25.8646 209.681 26.6646C209.137 27.4326 208.497 28.2166 207.761 29.0166C207.025 29.8166 206.273 30.5526 205.505 31.2246C204.737 31.8966 204.145 32.3286 203.729 32.5206C202.961 31.9446 202.289 31.3046 201.713 30.6006C201.169 29.8646 200.897 29.1766 200.897 28.5366C200.769 28.7926 200.577 28.9846 200.321 29.1126C200.065 29.2406 199.809 29.2886 199.553 29.2566C200.129 28.9046 200.497 28.3126 200.657 27.4806C200.817 26.6486 200.897 25.6566 200.897 24.5046V16.0566C200.897 15.8326 200.929 15.6086 200.993 15.3846C201.089 15.1286 201.281 14.9206 201.569 14.7606L205.793 12.3126C206.305 12.4726 206.801 12.6486 207.281 12.8406C207.761 13.0326 208.241 13.2086 208.721 13.3686C209.201 13.4966 209.681 13.5766 210.161 13.6086C210.673 13.6406 211.169 13.5606 211.649 13.3686ZM207.041 16.8726C207.041 16.7126 207.057 16.6006 207.089 16.5366L204.401 15.5286V24.4086C204.401 25.7846 204.449 26.8886 204.545 27.7206C204.673 28.5526 205.073 29.0646 205.745 29.2566C206.033 29.0646 206.257 28.7926 206.417 28.4406C206.609 28.0886 206.753 27.7046 206.849 27.2886C206.945 26.8726 206.993 26.4566 206.993 26.0406C207.025 25.6246 207.041 25.2726 207.041 24.9846V16.8726Z" fill="#0C0C0C"/>
</svg>
