<svg width="204" height="37" viewBox="0 0 204 37" fill="none" xmlns="http://www.w3.org/2000/svg">
<path d="M40.5517 30.92C41.1517 30.56 41.6517 30.12 42.0517 29.6C42.4517 29.04 42.8117 28.42 43.1317 27.74C43.1317 28.46 42.9517 29.18 42.5917 29.9C42.2717 30.62 41.8517 31.3 41.3317 31.94C40.8517 32.58 40.3117 33.18 39.7117 33.74C39.1117 34.26 38.5517 34.68 38.0317 35C37.0717 34.28 36.2317 33.48 35.5117 32.6C34.8317 31.68 34.4917 30.82 34.4917 30.02V22.82H31.4317V30.92L29.0917 35C28.0117 34.36 27.1517 33.56 26.5117 32.6C25.8717 31.6 25.5517 30.74 25.5517 30.02V22.82H22.0117V30.92C21.3317 31.08 20.6917 31.38 20.0917 31.82C19.5317 32.22 19.0117 32.66 18.5317 33.14C18.0517 33.58 17.6517 34 17.3317 34.4C17.0517 34.76 16.8517 34.96 16.7317 35C15.9317 34.72 15.1317 34.3 14.3317 33.74C13.5317 33.18 12.6917 32.58 11.8117 31.94C10.9717 31.3 10.0517 30.66 9.05172 30.02C8.09172 29.34 7.01172 28.74 5.81172 28.22C5.09172 27.9 4.43172 27.72 3.83172 27.68C3.27172 27.64 2.75172 27.98 2.27172 28.7C1.79172 29.42 1.57172 30.26 1.61172 31.22C1.69172 32.18 1.97172 33.04 2.45172 33.8C2.97172 34.56 3.69172 35.1 4.61172 35.42C5.57172 35.74 6.71172 35.6 8.03172 35C6.87172 35.68 5.73172 35.92 4.61172 35.72C3.53172 35.52 2.63172 35.06 1.91172 34.34C1.19172 33.62 0.731719 32.72 0.531719 31.64C0.331719 30.52 0.551719 29.36 1.19172 28.16C1.43172 27.76 1.77172 27.28 2.21172 26.72C2.69172 26.16 3.21172 25.64 3.77172 25.16C4.37172 24.68 4.97172 24.32 5.57172 24.08C6.17172 23.84 6.71172 23.82 7.19172 24.02C8.31172 24.54 9.43172 25.18 10.5517 25.94V18.38C10.5517 17.02 10.2717 16 9.71172 15.32C9.15172 14.6 8.55172 14.2 7.91172 14.12C7.27172 14 6.71172 14.22 6.23172 14.78C5.75172 15.3 5.61172 16.1 5.81172 17.18C5.41172 16.38 5.25172 15.62 5.33172 14.9C5.45172 14.14 5.73172 13.52 6.17172 13.04C6.61172 12.56 7.19172 12.26 7.91172 12.14C8.67172 11.98 9.49172 12.08 10.3717 12.44C10.1317 11.44 9.65172 10.54 8.93172 9.74C8.21172 8.9 7.47172 8.3 6.71172 7.94C5.95172 7.58 5.27172 7.52 4.67172 7.76C4.07172 8 3.79172 8.66 3.83172 9.74C3.51172 8.66 3.57172 7.88 4.01172 7.4C4.45172 6.88 5.05172 6.6 5.81172 6.56C6.61172 6.48 7.45172 6.58 8.33172 6.86C9.25172 7.14 9.99172 7.52 10.5517 8C10.5517 7.4 10.7517 6.92 11.1517 6.56C10.3517 6.12 9.41172 5.72 8.33172 5.36C7.25172 4.96 6.23172 4.86 5.27172 5.06C4.43172 5.22 3.77172 5.52 3.29172 5.96C2.81172 6.4 2.47172 6.92 2.27172 7.52C2.11172 8.08 2.09172 8.66 2.21172 9.26C2.37172 9.86 2.65172 10.38 3.05172 10.82C2.65172 10.62 2.33172 10.28 2.09172 9.8C1.85172 9.28 1.69172 8.72 1.61172 8.12C1.57172 7.52 1.59172 6.94 1.67172 6.38C1.79172 5.78 2.01172 5.32 2.33172 5C2.65172 4.68 2.95172 4.28 3.23172 3.8C3.51172 3.32 3.79172 2.86 4.07172 2.42C4.39172 1.98 4.71172 1.6 5.03172 1.28C5.39172 0.959997 5.75172 0.799997 6.11172 0.799997C6.83172 0.799997 7.59172 0.959997 8.39172 1.28C9.19172 1.56 10.0317 1.88 10.9117 2.24C11.7917 2.56 12.6717 2.86 13.5517 3.14C14.4717 3.42 15.3917 3.56 16.3117 3.56C15.8717 4 15.5317 4.4 15.2917 4.76C15.0917 5.12 14.9917 5.64 14.9917 6.32V24.62C14.9917 24.9 14.9317 25.2 14.8117 25.52C14.6917 25.8 14.4517 26.06 14.0917 26.3L12.4117 27.2C13.0517 27.64 13.6717 28.04 14.2717 28.4C14.8717 28.72 15.4917 29 16.1317 29.24V6.38C16.1317 6.1 16.1917 5.82 16.3117 5.54C16.4317 5.22 16.6717 4.96 17.0317 4.76L23.8717 0.799997C24.6717 1.04 25.4517 1.3 26.2117 1.58C27.0117 1.82 27.7917 2.02 28.5517 2.18C28.9917 2.26 29.4317 2.3 29.8717 2.3C30.3117 2.26 30.7517 2.14 31.1917 1.94L33.2917 0.799997C33.8117 0.959997 34.3917 1.16 35.0317 1.4C35.6717 1.6 36.3117 1.78 36.9517 1.94C37.6317 2.1 38.2917 2.2 38.9317 2.24C39.5717 2.28 40.1717 2.18 40.7317 1.94C40.3717 2.18 40.0317 2.5 39.7117 2.9C39.4317 3.26 39.1717 3.64 38.9317 4.04C38.9317 4.12 38.9117 4.22 38.8717 4.34C38.8717 4.46 38.8717 4.6 38.8717 4.76V24.86C38.8717 26.58 38.9317 27.96 39.0517 29C39.2117 30.04 39.7117 30.68 40.5517 30.92ZM20.2117 30.32C20.6117 30.4 20.8917 30.48 21.0517 30.56V4.76L20.5717 4.64V29.12C20.5717 29.32 20.5517 29.52 20.5117 29.72C20.4717 29.92 20.3717 30.12 20.2117 30.32ZM25.5517 17.9H22.0117V18.38H25.5517V17.9ZM25.5517 6.38V6.02L22.0117 5V16.94H25.5517V6.38ZM29.9917 24.98C29.9917 26.14 29.9917 27.22 29.9917 28.22C29.9917 29.18 30.1517 29.9 30.4717 30.38V4.76L29.9917 4.64V24.98ZM34.4917 17.9H31.4317V18.38H34.4917V17.9ZM34.4917 6.38C34.4917 6.14 34.5117 5.98 34.5517 5.9L31.4317 5V16.94H34.4917V6.38ZM43.2873 9.74C43.2073 9.26 43.0473 8.86 42.8073 8.54C42.6073 8.22 42.3473 7.94 42.0273 7.7C41.7473 7.46 41.4273 7.24 41.0673 7.04C40.7073 6.8 40.3873 6.52 40.1073 6.2L43.5273 2.18L47.0073 5.6L43.2873 9.74ZM48.2073 30.92C48.8473 30.56 49.3473 30.12 49.7073 29.6C50.1073 29.04 50.4673 28.42 50.7873 27.74C50.7873 28.46 50.6073 29.18 50.2473 29.9C49.9273 30.62 49.5073 31.3 48.9873 31.94C48.5073 32.58 47.9673 33.18 47.3673 33.74C46.7673 34.26 46.2073 34.68 45.6873 35C44.7673 34.28 43.9473 33.48 43.2273 32.6C42.5073 31.68 42.1473 30.82 42.1473 30.02C42.0273 30.34 41.8073 30.58 41.4873 30.74C41.1673 30.9 40.8473 30.96 40.5273 30.92C41.2473 30.48 41.6873 29.74 41.8473 28.7C42.0473 27.66 42.1473 26.42 42.1473 24.98V15.44C42.1473 15.12 42.2273 14.82 42.3873 14.54L40.5273 13.28L43.7673 9.74C43.9273 9.9 44.1473 10.1 44.4273 10.34C44.7473 10.54 45.0873 10.74 45.4473 10.94C45.8073 11.1 46.1873 11.22 46.5873 11.3C47.0273 11.34 47.4673 11.26 47.9073 11.06C47.4673 11.5 47.1273 11.9 46.8873 12.26C46.6873 12.62 46.5873 13.14 46.5873 13.82V24.86C46.5873 26.58 46.6473 27.96 46.7673 29C46.9273 30.04 47.4073 30.68 48.2073 30.92ZM63.6231 30.92C64.2231 30.56 64.7231 30.12 65.1231 29.6C65.5231 29.04 65.8831 28.42 66.2031 27.74C66.2031 28.46 66.0231 29.18 65.6631 29.9C65.3431 30.62 64.9231 31.3 64.4031 31.94C63.9231 32.58 63.3831 33.18 62.7831 33.74C62.1831 34.26 61.6231 34.68 61.1031 35C60.1431 34.28 59.3031 33.48 58.5831 32.6C57.9031 31.68 57.5631 30.82 57.5631 30.02V23V15.44C57.5631 15.32 57.5631 15.2 57.5631 15.08C57.6031 14.96 57.6431 14.82 57.6831 14.66L57.3831 14.48C56.9831 14.32 56.6031 14.66 56.2431 15.5C55.8831 16.34 55.5631 17.42 55.2831 18.74C55.0431 20.02 54.8231 21.4 54.6231 22.88C54.4231 24.32 54.3031 25.58 54.2631 26.66C54.3431 28.3 54.5231 29.42 54.8031 30.02C55.0831 30.62 55.6031 30.92 56.3631 30.92L53.4231 35C52.3031 34.36 51.4231 33.56 50.7831 32.6C50.1831 31.6 49.8831 30.74 49.8831 30.02C49.7231 30.34 49.4831 30.58 49.1631 30.74C48.8431 30.9 48.5231 30.96 48.2031 30.92C48.9231 30.48 49.3831 29.74 49.5831 28.7C49.7831 27.66 49.8831 26.42 49.8831 24.98V15.44C49.8831 15.32 49.8831 15.18 49.8831 15.02C49.9231 14.86 49.9831 14.7 50.0631 14.54L48.2031 13.28L51.5031 9.74C51.6631 9.9 51.8831 10.1 52.1631 10.34C52.4431 10.54 52.7631 10.74 53.1231 10.94C53.4831 11.1 53.8631 11.22 54.2631 11.3C54.7031 11.34 55.1431 11.26 55.5831 11.06C55.1431 11.5 54.8031 11.9 54.5631 12.26C54.3631 12.62 54.2631 13.14 54.2631 13.82V19.58C54.3831 18.5 54.5431 17.44 54.7431 16.4C54.9431 15.36 55.1831 14.4 55.4631 13.52C55.7831 12.6 56.1431 11.82 56.5431 11.18C56.9431 10.54 57.4031 10.06 57.9231 9.74C58.4831 10.06 58.9631 10.36 59.3631 10.64C59.7631 10.92 60.1431 11.14 60.5031 11.3C60.9031 11.42 61.3031 11.48 61.7031 11.48C62.1431 11.44 62.6831 11.3 63.3231 11.06C62.8831 11.5 62.5431 11.9 62.3031 12.26C62.0631 12.62 61.9431 13.14 61.9431 13.82L62.0031 24.86C62.0031 26.58 62.0631 27.96 62.1831 29C62.3031 30.04 62.7831 30.68 63.6231 30.92ZM79.0333 30.92C79.6333 30.56 80.1333 30.12 80.5333 29.6C80.9333 29.04 81.2933 28.42 81.6133 27.74C81.6133 28.46 81.4333 29.18 81.0733 29.9C80.7533 30.62 80.3333 31.3 79.8133 31.94C79.3333 32.58 78.7933 33.18 78.1933 33.74C77.5933 34.26 77.0333 34.68 76.5133 35C75.5533 34.28 74.7133 33.48 73.9933 32.6C73.3133 31.68 72.9733 30.82 72.9733 30.02V15.44C72.9733 15.12 73.0133 14.86 73.0933 14.66L72.7933 14.48C72.3933 14.32 72.0133 14.66 71.6533 15.5C71.2933 16.34 70.9733 17.42 70.6933 18.74C70.4533 20.02 70.2333 21.4 70.0333 22.88C69.8333 24.32 69.7133 25.58 69.6733 26.66C69.7533 28.3 69.9333 29.42 70.2133 30.02C70.4933 30.62 71.0133 30.92 71.7733 30.92L68.8333 35C67.7133 34.36 66.8333 33.56 66.1933 32.6C65.5533 31.6 65.2333 30.74 65.2333 30.02C65.1133 30.34 64.8933 30.58 64.5733 30.74C64.2533 30.9 63.9333 30.96 63.6133 30.92C64.3333 30.48 64.7733 29.74 64.9333 28.7C65.1333 27.66 65.2333 26.42 65.2333 24.98V6.62C65.2333 6.38 65.2933 6.1 65.4133 5.78C65.5333 5.46 65.7733 5.2 66.1333 5L70.9933 2.18C70.5533 2.66 70.2133 3.08 69.9733 3.44C69.7733 3.8 69.6733 4.32 69.6733 5V19.58C69.7933 18.5 69.9533 17.44 70.1533 16.4C70.3533 15.36 70.5933 14.4 70.8733 13.52C71.1933 12.6 71.5533 11.82 71.9533 11.18C72.3533 10.54 72.8133 10.06 73.3333 9.74C73.8933 10.06 74.3733 10.36 74.7733 10.64C75.1733 10.92 75.5533 11.14 75.9133 11.3C76.3133 11.42 76.7133 11.48 77.1133 11.48C77.5533 11.44 78.0933 11.3 78.7333 11.06C78.2533 11.5 77.8933 11.9 77.6533 12.26C77.4533 12.62 77.3533 13.14 77.3533 13.82V24.86C77.3533 26.58 77.4133 27.96 77.5333 29C77.6933 30.04 78.1933 30.68 79.0333 30.92ZM94.4434 30.92C95.0834 30.56 95.6034 30.12 96.0034 29.6C96.4034 29.04 96.7634 28.42 97.0834 27.74C97.0834 28.46 96.9034 29.18 96.5434 29.9C96.1834 30.62 95.7434 31.3 95.2234 31.94C94.7434 32.58 94.2034 33.18 93.6034 33.74C93.0034 34.26 92.4434 34.68 91.9234 35C91.1234 34.36 90.3834 33.64 89.7034 32.84C89.0634 32.04 88.6434 31.28 88.4434 30.56C87.9234 31.48 87.2634 32.34 86.4634 33.14C85.6634 33.94 84.9234 34.56 84.2434 35C83.2834 34.28 82.4434 33.48 81.7234 32.6C81.0434 31.68 80.7034 30.82 80.7034 30.02C80.5834 30.34 80.3434 30.58 79.9834 30.74C79.6634 30.9 79.3434 30.96 79.0234 30.92C79.7434 30.48 80.2034 29.74 80.4034 28.7C80.6034 27.66 80.7034 26.42 80.7034 24.98V19.52C80.7034 19.28 80.7434 19 80.8234 18.68C80.9434 18.36 81.2034 18.1 81.6034 17.9L83.2834 17.12C82.6034 17.12 82.0834 16.94 81.7234 16.58C81.3634 16.22 81.1234 15.8 81.0034 15.32C80.8834 14.84 80.8834 14.34 81.0034 13.82C81.1634 13.26 81.4034 12.76 81.7234 12.32C82.1634 11.76 82.6634 11.26 83.2234 10.82C83.8234 10.34 84.3834 9.98 84.9034 9.74C85.5434 9.94 86.2634 10.16 87.0634 10.4C87.8634 10.64 88.6834 10.86 89.5234 11.06C90.3634 11.22 91.1834 11.32 91.9834 11.36C92.8234 11.4 93.5434 11.3 94.1434 11.06C93.7034 11.5 93.3634 11.9 93.1234 12.26C92.9234 12.62 92.8234 13.14 92.8234 13.82V24.86C92.8234 26.58 92.8834 27.96 93.0034 29C93.1634 30.04 93.6434 30.68 94.4434 30.92ZM86.7634 30.92C87.2034 30.68 87.5234 30.32 87.7234 29.84C87.9634 29.32 88.1234 28.78 88.2034 28.22C88.3234 27.66 88.3834 27.1 88.3834 26.54C88.3834 25.94 88.3834 25.42 88.3834 24.98V17.66V15.44C88.3834 15.36 88.4034 15.28 88.4434 15.2C87.7234 15 86.9634 14.8 86.1634 14.6C85.4034 14.4 84.5634 14.16 83.6434 13.88C83.1634 13.76 82.7834 13.8 82.5034 14C82.2234 14.2 82.0434 14.46 81.9634 14.78C81.9234 15.1 81.9834 15.42 82.1434 15.74C82.3434 16.06 82.6634 16.26 83.1034 16.34C83.5834 16.42 84.1034 16.38 84.6634 16.22C85.2234 16.06 85.7634 15.88 86.2834 15.68L87.3034 15.2C87.1434 15.4 86.9434 15.62 86.7034 15.86C86.4634 16.1 86.2234 16.38 85.9834 16.7C85.7434 16.98 85.5234 17.3 85.3234 17.66C85.1634 18.02 85.0834 18.42 85.0834 18.86V24.86C85.0834 26.58 85.1434 27.96 85.2634 29C85.4234 30.04 85.9234 30.68 86.7634 30.92ZM123.617 10.82C124.217 11.02 124.797 11.26 125.357 11.54C125.957 11.78 126.557 11.98 127.157 12.14C127.757 12.3 128.337 12.4 128.897 12.44C129.497 12.44 130.097 12.32 130.697 12.08C130.257 12.52 129.917 12.92 129.677 13.28C129.477 13.64 129.377 14.16 129.377 14.84V25.4C129.377 25.96 129.077 26.68 128.477 27.56C127.877 28.44 127.117 29.34 126.197 30.26C125.277 31.18 124.257 32.08 123.137 32.96C122.017 33.8 120.937 34.48 119.897 35C117.217 34.6 114.877 33.8 112.877 32.6C110.917 31.36 109.297 29.9 108.017 28.22C106.737 26.54 105.797 24.7 105.197 22.7C104.597 20.7 104.317 18.68 104.357 16.64C104.437 14.6 104.817 12.64 105.497 10.76C106.217 8.84 107.217 7.14 108.497 5.66C109.817 4.18 111.417 3 113.297 2.12C115.217 1.24 117.417 0.799997 119.897 0.799997C120.337 0.919998 121.037 1.1 121.997 1.34C122.997 1.54 124.057 1.72 125.177 1.88C126.297 2.04 127.357 2.14 128.357 2.18C129.357 2.22 130.097 2.14 130.577 1.94C129.657 3.58 128.557 5.1 127.277 6.5C125.997 7.9 124.777 9.34 123.617 10.82ZM114.377 3.14C112.697 4.34 111.397 6 110.477 8.12C109.597 10.24 109.097 12.48 108.977 14.84C108.897 17.16 109.217 19.46 109.937 21.74C110.697 23.98 111.877 25.86 113.477 27.38C113.717 26.58 113.917 25.78 114.077 24.98C114.277 24.18 114.397 23.56 114.437 23.12L114.377 6.8C113.457 7.8 112.617 9.06 111.857 10.58C111.097 12.06 110.597 13.78 110.357 15.74C110.277 14.74 110.317 13.74 110.477 12.74C110.677 11.7 110.957 10.7 111.317 9.74C111.677 8.74 112.117 7.82 112.637 6.98C113.157 6.1 113.737 5.32 114.377 4.64V3.14ZM114.257 28.1C115.777 29.3 117.457 30.04 119.297 30.32V28.64C119.057 28.16 118.697 27.78 118.217 27.5C117.777 27.18 117.357 26.8 116.957 26.36L119.297 23.3V4.88L118.817 4.76V21.74C118.817 22.1 118.697 22.46 118.457 22.82C118.217 23.14 117.977 23.44 117.737 23.72L114.257 28.1ZM120.257 15.02C120.657 13.22 121.397 11.6 122.477 10.16C123.557 8.68 124.657 7.36 125.777 6.2H125.417L120.257 5.06V15.02ZM124.937 16.46C124.937 16.3 124.957 16.18 124.997 16.1C124.557 15.86 124.117 15.64 123.677 15.44C123.277 15.2 122.877 15.06 122.477 15.02C122.117 14.98 121.757 15.12 121.397 15.44C121.037 15.72 120.717 16.26 120.437 17.06C120.397 17.34 120.357 17.62 120.317 17.9C120.317 18.18 120.297 18.46 120.257 18.74V23.66C120.577 24.1 120.957 24.44 121.397 24.68C121.837 24.92 122.297 25.3 122.777 25.82L120.257 28.88V30.44V30.5C120.537 30.54 120.877 30.58 121.277 30.62C121.677 30.66 122.077 30.62 122.477 30.5C122.917 30.34 123.337 30.08 123.737 29.72C124.137 29.36 124.477 28.82 124.757 28.1C124.877 27.46 124.937 26.62 124.937 25.58V16.46ZM146.123 30.92C146.763 30.56 147.283 30.12 147.683 29.6C148.083 29.04 148.443 28.42 148.763 27.74C148.763 28.46 148.583 29.18 148.223 29.9C147.863 30.62 147.423 31.3 146.903 31.94C146.423 32.58 145.883 33.18 145.283 33.74C144.683 34.26 144.123 34.68 143.603 35C142.803 34.36 142.063 33.64 141.383 32.84C140.743 32.04 140.323 31.28 140.123 30.56C139.603 31.48 138.943 32.34 138.143 33.14C137.343 33.94 136.603 34.56 135.923 35C134.963 34.28 134.123 33.48 133.403 32.6C132.723 31.68 132.383 30.82 132.383 30.02C132.263 30.34 132.023 30.58 131.663 30.74C131.343 30.9 131.023 30.96 130.703 30.92C131.423 30.48 131.883 29.74 132.083 28.7C132.283 27.66 132.383 26.42 132.383 24.98V19.52C132.383 19.28 132.423 19 132.503 18.68C132.623 18.36 132.883 18.1 133.283 17.9L134.963 17.12C134.283 17.12 133.763 16.94 133.403 16.58C133.043 16.22 132.803 15.8 132.683 15.32C132.563 14.84 132.563 14.34 132.683 13.82C132.843 13.26 133.083 12.76 133.403 12.32C133.843 11.76 134.343 11.26 134.903 10.82C135.503 10.34 136.063 9.98 136.583 9.74C137.223 9.94 137.943 10.16 138.743 10.4C139.543 10.64 140.363 10.86 141.203 11.06C142.043 11.22 142.863 11.32 143.663 11.36C144.503 11.4 145.223 11.3 145.823 11.06C145.383 11.5 145.043 11.9 144.803 12.26C144.603 12.62 144.503 13.14 144.503 13.82V24.86C144.503 26.58 144.563 27.96 144.683 29C144.843 30.04 145.323 30.68 146.123 30.92ZM138.443 30.92C138.883 30.68 139.203 30.32 139.403 29.84C139.643 29.32 139.803 28.78 139.883 28.22C140.003 27.66 140.063 27.1 140.063 26.54C140.063 25.94 140.063 25.42 140.063 24.98V17.66V15.44C140.063 15.36 140.083 15.28 140.123 15.2C139.403 15 138.643 14.8 137.843 14.6C137.083 14.4 136.243 14.16 135.323 13.88C134.843 13.76 134.463 13.8 134.183 14C133.903 14.2 133.723 14.46 133.643 14.78C133.603 15.1 133.663 15.42 133.823 15.74C134.023 16.06 134.343 16.26 134.783 16.34C135.263 16.42 135.783 16.38 136.343 16.22C136.903 16.06 137.443 15.88 137.963 15.68L138.983 15.2C138.823 15.4 138.623 15.62 138.383 15.86C138.143 16.1 137.903 16.38 137.663 16.7C137.423 16.98 137.203 17.3 137.003 17.66C136.843 18.02 136.763 18.42 136.763 18.86V24.86C136.763 26.58 136.823 27.96 136.943 29C137.103 30.04 137.603 30.68 138.443 30.92ZM153.793 30.92C154.433 30.56 154.953 30.12 155.353 29.6C155.753 29.04 156.093 28.42 156.373 27.74C156.373 28.46 156.193 29.18 155.833 29.9C155.513 30.62 155.093 31.3 154.573 31.94C154.093 32.58 153.553 33.18 152.953 33.74C152.353 34.26 151.793 34.68 151.273 35C150.353 34.28 149.533 33.48 148.813 32.6C148.093 31.68 147.733 30.82 147.733 30.02C147.613 30.34 147.393 30.58 147.073 30.74C146.753 30.9 146.433 30.96 146.113 30.92C146.833 30.48 147.273 29.74 147.433 28.7C147.633 27.66 147.733 26.42 147.733 24.98V6.62C147.733 6.38 147.793 6.1 147.913 5.78C148.033 5.46 148.273 5.2 148.633 5L153.493 2.18C153.053 2.66 152.713 3.08 152.473 3.44C152.273 3.8 152.173 4.32 152.173 5V24.98C152.173 26.66 152.233 28.02 152.353 29.06C152.513 30.06 152.993 30.68 153.793 30.92ZM161.529 30.92C161.769 30.72 161.989 30.4 162.189 29.96C162.389 29.48 162.569 28.98 162.729 28.46C162.889 27.9 163.009 27.34 163.089 26.78C163.169 26.22 163.189 25.74 163.149 25.34C163.269 25.46 163.369 25.66 163.449 25.94C163.569 26.18 163.669 26.44 163.749 26.72C163.829 26.96 163.889 27.2 163.929 27.44C164.009 27.64 164.049 27.76 164.049 27.8C164.049 28.52 163.869 29.24 163.509 29.96C163.189 30.68 162.769 31.36 162.249 32C161.769 32.64 161.229 33.22 160.629 33.74C160.069 34.26 159.529 34.68 159.009 35C158.049 34.28 157.209 33.48 156.489 32.6C155.769 31.68 155.409 30.82 155.409 30.02C155.289 30.34 155.069 30.58 154.749 30.74C154.429 30.9 154.109 30.96 153.789 30.92C154.509 30.48 154.949 29.74 155.109 28.7C155.309 27.66 155.409 26.42 155.409 24.98V14.42C155.409 14.14 155.469 13.86 155.589 13.58C155.709 13.26 155.949 13 156.309 12.8L161.709 9.74C162.269 10.06 162.769 10.36 163.209 10.64C163.649 10.88 164.089 11.08 164.529 11.24C165.009 11.4 165.489 11.48 165.969 11.48C166.449 11.44 167.029 11.3 167.709 11.06C166.429 12.42 165.029 13.84 163.509 15.32C162.029 16.8 160.809 18.32 159.849 19.88V24.86C159.849 26.58 159.909 27.96 160.029 29C160.189 30.04 160.689 30.68 161.529 30.92ZM159.849 18.14C160.169 17.58 160.529 17.04 160.929 16.52C161.329 15.96 161.729 15.42 162.129 14.9L159.849 13.7V18.14ZM180.396 11.06C179.436 11.74 178.556 12.8 177.756 14.24C176.956 15.64 176.296 17.18 175.776 18.86C175.296 20.54 174.996 22.22 174.876 23.9C174.796 25.58 175.016 26.98 175.536 28.1C174.856 27.42 174.396 26.54 174.156 25.46C173.956 24.38 173.896 23.24 173.976 22.04C174.056 20.8 174.236 19.58 174.516 18.38C174.836 17.14 175.176 16.04 175.536 15.08L174.456 14.48C174.136 14.32 173.836 14.5 173.556 15.02C173.276 15.5 173.016 16.16 172.776 17C172.536 17.84 172.316 18.82 172.116 19.94C171.956 21.02 171.816 22.1 171.696 23.18C171.576 24.22 171.476 25.2 171.396 26.12C171.316 27.04 171.296 27.76 171.336 28.28C171.456 29.28 171.656 29.98 171.936 30.38C172.216 30.74 172.676 30.92 173.316 30.92L170.376 35C169.256 34.36 168.376 33.56 167.736 32.6C167.136 31.6 166.836 30.74 166.836 30.02C166.676 30.34 166.436 30.58 166.116 30.74C165.796 30.9 165.476 30.96 165.156 30.92C165.876 30.48 166.336 29.74 166.536 28.7C166.736 27.66 166.836 26.42 166.836 24.98V15.44C166.836 15.32 166.836 15.18 166.836 15.02C166.876 14.86 166.936 14.7 167.016 14.54L165.156 13.28L168.456 9.74C168.616 9.9 168.836 10.1 169.116 10.34C169.396 10.54 169.716 10.74 170.076 10.94C170.436 11.1 170.816 11.22 171.216 11.3C171.656 11.34 172.096 11.26 172.536 11.06C172.096 11.5 171.756 11.9 171.516 12.26C171.316 12.62 171.216 13.14 171.216 13.82V20.72C171.336 19.56 171.496 18.4 171.696 17.24C171.896 16.04 172.136 14.94 172.416 13.94C172.736 12.94 173.096 12.08 173.496 11.36C173.936 10.6 174.436 10.06 174.996 9.74C175.556 10.06 176.036 10.36 176.436 10.64C176.836 10.88 177.216 11.08 177.576 11.24C177.976 11.4 178.376 11.48 178.776 11.48C179.216 11.44 179.756 11.3 180.396 11.06ZM180.162 9.74C180.082 9.26 179.922 8.86 179.682 8.54C179.482 8.22 179.222 7.94 178.902 7.7C178.622 7.46 178.302 7.24 177.942 7.04C177.582 6.8 177.262 6.52 176.982 6.2L180.402 2.18L183.882 5.6L180.162 9.74ZM185.082 30.92C185.722 30.56 186.222 30.12 186.582 29.6C186.982 29.04 187.342 28.42 187.662 27.74C187.662 28.46 187.482 29.18 187.122 29.9C186.802 30.62 186.382 31.3 185.862 31.94C185.382 32.58 184.842 33.18 184.242 33.74C183.642 34.26 183.082 34.68 182.562 35C181.642 34.28 180.822 33.48 180.102 32.6C179.382 31.68 179.022 30.82 179.022 30.02C178.902 30.34 178.682 30.58 178.362 30.74C178.042 30.9 177.722 30.96 177.402 30.92C178.122 30.48 178.562 29.74 178.722 28.7C178.922 27.66 179.022 26.42 179.022 24.98V15.44C179.022 15.12 179.102 14.82 179.262 14.54L177.402 13.28L180.642 9.74C180.802 9.9 181.022 10.1 181.302 10.34C181.622 10.54 181.962 10.74 182.322 10.94C182.682 11.1 183.062 11.22 183.462 11.3C183.902 11.34 184.342 11.26 184.782 11.06C184.342 11.5 184.002 11.9 183.762 12.26C183.562 12.62 183.462 13.14 183.462 13.82V24.86C183.462 26.58 183.522 27.96 183.642 29C183.802 30.04 184.282 30.68 185.082 30.92ZM200.498 30.92C201.138 30.56 201.658 30.12 202.058 29.6C202.458 29.04 202.818 28.42 203.138 27.74C203.138 28.46 202.958 29.18 202.598 29.9C202.238 30.62 201.798 31.3 201.278 31.94C200.798 32.58 200.258 33.18 199.658 33.74C199.058 34.26 198.498 34.68 197.978 35C197.178 34.36 196.438 33.64 195.758 32.84C195.118 32.04 194.698 31.28 194.498 30.56C193.978 31.48 193.318 32.34 192.518 33.14C191.718 33.94 190.978 34.56 190.298 35C189.338 34.28 188.498 33.48 187.778 32.6C187.098 31.68 186.758 30.82 186.758 30.02C186.638 30.34 186.398 30.58 186.038 30.74C185.718 30.9 185.398 30.96 185.078 30.92C185.798 30.48 186.258 29.74 186.458 28.7C186.658 27.66 186.758 26.42 186.758 24.98V19.52C186.758 19.28 186.798 19 186.878 18.68C186.998 18.36 187.258 18.1 187.658 17.9L189.338 17.12C188.658 17.12 188.138 16.94 187.778 16.58C187.418 16.22 187.178 15.8 187.058 15.32C186.938 14.84 186.938 14.34 187.058 13.82C187.218 13.26 187.458 12.76 187.778 12.32C188.218 11.76 188.718 11.26 189.278 10.82C189.878 10.34 190.438 9.98 190.958 9.74C191.598 9.94 192.318 10.16 193.118 10.4C193.918 10.64 194.738 10.86 195.578 11.06C196.418 11.22 197.238 11.32 198.038 11.36C198.878 11.4 199.598 11.3 200.198 11.06C199.758 11.5 199.418 11.9 199.178 12.26C198.978 12.62 198.878 13.14 198.878 13.82V24.86C198.878 26.58 198.938 27.96 199.058 29C199.218 30.04 199.698 30.68 200.498 30.92ZM192.818 30.92C193.258 30.68 193.578 30.32 193.778 29.84C194.018 29.32 194.178 28.78 194.258 28.22C194.378 27.66 194.438 27.1 194.438 26.54C194.438 25.94 194.438 25.42 194.438 24.98V17.66V15.44C194.438 15.36 194.458 15.28 194.498 15.2C193.778 15 193.018 14.8 192.218 14.6C191.458 14.4 190.618 14.16 189.698 13.88C189.218 13.76 188.838 13.8 188.558 14C188.278 14.2 188.098 14.46 188.018 14.78C187.978 15.1 188.038 15.42 188.198 15.74C188.398 16.06 188.718 16.26 189.158 16.34C189.638 16.42 190.158 16.38 190.718 16.22C191.278 16.06 191.818 15.88 192.338 15.68L193.358 15.2C193.198 15.4 192.998 15.62 192.758 15.86C192.518 16.1 192.278 16.38 192.038 16.7C191.798 16.98 191.578 17.3 191.378 17.66C191.218 18.02 191.138 18.42 191.138 18.86V24.86C191.138 26.58 191.198 27.96 191.318 29C191.478 30.04 191.978 30.68 192.818 30.92Z" fill="black"/>
</svg>
