<svg width="164" height="36" viewBox="0 0 164 36" fill="none" xmlns="http://www.w3.org/2000/svg">
<path d="M25.5293 15.952C25.7213 16.752 25.5613 17.744 25.0493 18.928C24.5693 20.08 23.9133 21.248 23.0813 22.432C22.2813 23.616 21.4013 24.72 20.4413 25.744C19.4813 26.768 18.6173 27.52 17.8493 28C17.0813 27.712 16.0573 27.296 14.7773 26.752C13.4973 26.208 12.1373 25.616 10.6973 24.976C9.96125 26.288 9.14525 27.28 8.24925 27.952C7.38525 28.624 6.36125 28.928 5.17725 28.864C4.34525 28.8 3.62525 28.56 3.01725 28.144C2.40925 27.728 1.94525 27.232 1.62525 26.656C1.30525 26.048 1.14525 25.376 1.14525 24.64C1.14525 23.904 1.33725 23.2 1.72125 22.528C1.91325 22.208 2.18525 21.824 2.53725 21.376C2.92125 20.928 3.33725 20.512 3.78525 20.128C4.23325 19.744 4.69725 19.456 5.17725 19.264C5.68925 19.072 6.13725 19.056 6.52125 19.216C7.09725 19.472 7.78525 19.792 8.58525 20.176C9.41725 20.528 10.2973 20.912 11.2253 21.328C11.3853 20.88 11.5453 20.448 11.7053 20.032C11.8653 19.584 12.0413 19.136 12.2333 18.688C11.2093 18.496 10.1853 18.288 9.16125 18.064C8.13725 17.808 7.16125 17.504 6.23325 17.152C5.30525 16.8 4.45725 16.368 3.68925 15.856C2.92125 15.344 2.28125 14.72 1.76925 13.984C1.28925 13.248 0.96925 12.384 0.80925 11.392C0.68125 10.368 0.77725 9.168 1.09725 7.792C1.19325 9.392 1.62525 10.656 2.39325 11.584C3.16125 12.48 4.12125 13.184 5.27325 13.696C6.45725 14.208 7.76925 14.592 9.20925 14.848C10.6493 15.072 12.0733 15.296 13.4813 15.52C13.5453 15.36 13.6093 15.216 13.6733 15.088C13.7693 14.928 13.8493 14.768 13.9133 14.608C12.5053 14.32 11.0813 14.032 9.64125 13.744C8.23325 13.456 6.95325 13.072 5.80125 12.592C4.64925 12.08 3.70525 11.44 2.96925 10.672C2.26525 9.872 1.92925 8.816 1.96125 7.504C1.99325 6.768 2.21725 6.112 2.63325 5.536C3.04925 4.928 3.59325 4.384 4.26525 3.904C4.93725 3.424 5.67325 3.008 6.47325 2.656C7.30525 2.272 8.12125 1.952 8.92125 1.696C9.72125 1.44 10.4733 1.232 11.1773 1.072C11.9133 0.879998 12.5052 0.735998 12.9532 0.639997C13.1453 0.767998 13.3853 1.072 13.6733 1.552C13.9933 2 14.3773 2.48 14.8253 2.992C15.2733 3.504 15.8013 3.968 16.4093 4.384C17.0173 4.768 17.7373 4.928 18.5693 4.864C19.5613 4.8 20.1853 4.448 20.4413 3.808C20.7293 3.136 20.7453 2.384 20.4893 1.552C21.0973 2.16 21.3053 2.912 21.1133 3.808C20.9213 4.672 20.5533 5.568 20.0093 6.496C19.4653 7.424 18.8573 8.336 18.1853 9.232C17.5453 10.128 17.0493 10.896 16.6973 11.536C17.7533 11.76 18.7773 12 19.7693 12.256C20.7613 12.48 21.6573 12.768 22.4573 13.12C23.2893 13.44 23.9613 13.84 24.4733 14.32C25.0173 14.768 25.3693 15.312 25.5293 15.952ZM5.22525 28.192C6.34525 28.256 7.25725 27.968 7.96125 27.328C8.66525 26.656 9.30525 25.744 9.88125 24.592C9.04925 24.24 8.24925 23.888 7.48125 23.536C6.74525 23.184 6.05725 22.864 5.41725 22.576C4.84125 22.32 4.31325 22.176 3.83325 22.144C3.38525 22.112 2.96925 22.384 2.58525 22.96C2.23325 23.504 2.05725 24.08 2.05725 24.688C2.05725 25.264 2.18525 25.808 2.44125 26.32C2.69725 26.832 3.06525 27.264 3.54525 27.616C4.02525 27.968 4.58525 28.16 5.22525 28.192ZM6.52125 7.456C6.90525 8 7.41725 8.464 8.05725 8.848C8.69725 9.232 9.40125 9.568 10.1693 9.856C10.9693 10.144 11.8173 10.416 12.7133 10.672C13.6413 10.896 14.5853 11.104 15.5453 11.296C15.6413 11.072 15.7533 10.848 15.8813 10.624C16.0093 10.4 16.1373 10.176 16.2653 9.952C15.1453 9.728 14.1533 9.312 13.2893 8.704C12.4253 8.096 11.6253 7.504 10.8893 6.928C10.1853 6.32 9.51325 5.84 8.87325 5.488C8.26525 5.104 7.62525 5.04 6.95325 5.296C7.30525 4.88 7.68925 4.672 8.10525 4.672C8.55325 4.64 9.01725 4.736 9.49725 4.96C9.97725 5.152 10.4733 5.44 10.9853 5.824C11.5293 6.176 12.0733 6.528 12.6172 6.88C13.1933 7.232 13.7853 7.536 14.3932 7.792C15.0333 8.048 15.6893 8.176 16.3613 8.176C15.6573 8.016 15.0013 7.76 14.3932 7.408C13.7853 7.056 13.2093 6.672 12.6653 6.256C12.1533 5.84 11.6733 5.424 11.2253 5.008C10.7773 4.592 10.3773 4.256 10.0253 4C9.51325 3.616 8.93725 3.44 8.29725 3.472C7.65725 3.472 7.11325 3.648 6.66525 4C6.21725 4.32 5.92925 4.784 5.80125 5.392C5.70525 6 5.94525 6.688 6.52125 7.456ZM17.9933 24.208C18.2493 24.304 18.5053 24.336 18.7613 24.304C19.0493 24.272 19.3053 24.192 19.5293 24.064C19.7853 23.936 19.9773 23.76 20.1053 23.536C20.2653 23.312 20.3453 23.056 20.3453 22.768C20.3133 22.192 20.1053 21.696 19.7213 21.28C19.3693 20.864 18.8733 20.512 18.2333 20.224C17.5933 19.936 16.8573 19.696 16.0253 19.504C15.1933 19.28 14.2973 19.072 13.3373 18.88C13.1773 19.392 13.0013 19.888 12.8093 20.368C12.6173 20.848 12.4253 21.328 12.2333 21.808C13.3533 22.288 14.4253 22.752 15.4493 23.2C16.5053 23.616 17.3533 23.952 17.9933 24.208ZM21.5933 20.128C21.6893 19.168 21.5453 18.384 21.1613 17.776C20.7773 17.168 20.2493 16.672 19.5773 16.288C18.9373 15.904 18.2013 15.616 17.3693 15.424C16.5693 15.2 15.8013 15.008 15.0653 14.848C15.0013 15.008 14.9373 15.152 14.8733 15.28C14.8093 15.408 14.7453 15.552 14.6813 15.712C15.5133 15.872 16.2973 16.064 17.0333 16.288C17.8013 16.48 18.4893 16.752 19.0973 17.104C19.7053 17.424 20.2173 17.84 20.6333 18.352C21.0813 18.832 21.4013 19.424 21.5933 20.128ZM31.8326 24.736C32.0246 24.576 32.2006 24.32 32.3606 23.968C32.5206 23.584 32.6646 23.184 32.7926 22.768C32.9206 22.32 33.0166 21.872 33.0806 21.424C33.1446 20.976 33.1606 20.592 33.1286 20.272C33.2246 20.368 33.3046 20.528 33.3686 20.752C33.4646 20.944 33.5446 21.152 33.6086 21.376C33.6726 21.568 33.7206 21.76 33.7526 21.952C33.8166 22.112 33.8486 22.208 33.8486 22.24C33.8486 22.816 33.7046 23.392 33.4166 23.968C33.1606 24.544 32.8246 25.088 32.4086 25.6C32.0246 26.112 31.5926 26.576 31.1126 26.992C30.6646 27.408 30.2326 27.744 29.8166 28C29.0486 27.424 28.3766 26.784 27.8006 26.08C27.2246 25.344 26.9366 24.656 26.9366 24.016C26.8406 24.272 26.6646 24.464 26.4086 24.592C26.1526 24.72 25.8966 24.768 25.6406 24.736C26.2166 24.384 26.5686 23.792 26.6966 22.96C26.8566 22.128 26.9366 21.136 26.9366 19.984V11.536C26.9366 11.312 26.9846 11.088 27.0806 10.864C27.1766 10.608 27.3686 10.4 27.6566 10.24L31.9766 7.792C32.4246 8.048 32.8246 8.288 33.1766 8.512C33.5286 8.704 33.8806 8.864 34.2326 8.992C34.6166 9.12 35.0006 9.184 35.3846 9.184C35.7686 9.152 36.2326 9.04 36.7766 8.848C35.7526 9.936 34.6326 11.072 33.4166 12.256C32.2326 13.44 31.2566 14.656 30.4886 15.904V19.888C30.4886 21.264 30.5366 22.368 30.6326 23.2C30.7606 24.032 31.1606 24.544 31.8326 24.736ZM30.4886 14.512C30.7446 14.064 31.0326 13.632 31.3526 13.216C31.6726 12.768 31.9926 12.336 32.3126 11.92L30.4886 10.96V14.512ZM41.0224 22.096C41.0224 23.472 41.1664 24.672 41.4544 25.696C41.7744 26.688 41.9984 27.536 42.1264 28.24C41.5824 29.168 40.9584 30.208 40.2544 31.36C39.5824 32.544 38.8944 33.52 38.1904 34.288C37.5824 33.68 36.8304 33.008 35.9344 32.272C35.0704 31.536 34.1744 30.96 33.2464 30.544C32.7024 30.288 32.3024 30.32 32.0464 30.64C31.7904 30.96 31.6624 31.376 31.6624 31.888C31.6624 32.464 31.8224 32.976 32.1424 33.424C32.4624 33.872 32.8784 34.224 33.3904 34.48C33.8704 34.768 34.4144 34.928 35.0224 34.96C35.6304 34.992 36.2224 34.896 36.7984 34.672C36.3184 34.992 35.7744 35.168 35.1664 35.2C34.5584 35.232 33.9664 35.136 33.3904 34.912C32.7824 34.688 32.2544 34.336 31.8064 33.856C31.3584 33.376 31.0704 32.768 30.9424 32.032C30.8464 31.328 31.0064 30.688 31.4224 30.112C31.4864 30.016 31.6464 29.872 31.9024 29.68C32.1584 29.52 32.4624 29.328 32.8144 29.104C33.1344 28.912 33.4544 28.72 33.7744 28.528C34.0944 28.368 34.3504 28.24 34.5424 28.144C34.7664 28.048 35.0224 27.872 35.3104 27.616C35.6304 27.36 35.9344 27.088 36.2224 26.8C36.5104 26.512 36.7664 26.224 36.9904 25.936C37.2144 25.616 37.3744 25.328 37.4704 25.072V20.224V12.448C37.4704 12.352 37.4704 12.272 37.4704 12.208C37.5024 12.112 37.5344 12.016 37.5664 11.92L34.7344 10.624L37.3744 7.792C37.8864 7.952 38.3184 8.128 38.6704 8.32C39.0544 8.512 39.4064 8.688 39.7264 8.848C40.0784 8.976 40.4304 9.056 40.7824 9.088C41.1664 9.12 41.5984 9.04 42.0784 8.848C41.7264 9.2 41.4544 9.52 41.2624 9.808C41.1024 10.096 41.0224 10.512 41.0224 11.056V22.096ZM35.6464 28.192C35.8064 28.288 36.0144 28.416 36.2704 28.576C36.5584 28.736 36.8624 28.928 37.1824 29.152C37.5024 29.376 37.8064 29.616 38.0944 29.872C38.4144 30.128 38.6864 30.368 38.9104 30.592C38.8464 30.272 38.7504 29.888 38.6224 29.44C38.5264 29.024 38.4144 28.608 38.2864 28.192C38.1584 27.808 38.0304 27.456 37.9024 27.136C37.8064 26.784 37.7104 26.512 37.6144 26.32C37.2624 26.736 36.9424 27.088 36.6544 27.376C36.3664 27.664 36.0304 27.936 35.6464 28.192ZM36.9904 7.792C36.9264 7.408 36.7984 7.088 36.6064 6.832C36.4464 6.576 36.2384 6.352 35.9824 6.16C35.7584 5.968 35.5024 5.792 35.2144 5.632C34.9264 5.44 34.6704 5.216 34.4464 4.96L37.1344 1.744L39.9184 4.48L36.9904 7.792ZM54.4766 24.736C54.9886 24.448 55.4046 24.096 55.7246 23.68C56.0446 23.232 56.3326 22.736 56.5886 22.192C56.5886 22.768 56.4446 23.344 56.1566 23.92C55.8686 24.496 55.5166 25.04 55.1006 25.552C54.7166 26.064 54.2846 26.544 53.8046 26.992C53.3246 27.408 52.8766 27.744 52.4606 28C51.8206 27.488 51.2286 26.912 50.6846 26.272C50.1726 25.632 49.8366 25.024 49.6766 24.448C49.2606 25.184 48.7326 25.872 48.0926 26.512C47.4526 27.152 46.8606 27.648 46.3166 28C45.5486 27.424 44.8766 26.784 44.3006 26.08C43.7566 25.344 43.4846 24.656 43.4846 24.016C43.3886 24.272 43.1966 24.464 42.9086 24.592C42.6526 24.72 42.3966 24.768 42.1406 24.736C42.7166 24.384 43.0846 23.792 43.2446 22.96C43.4046 22.128 43.4846 21.136 43.4846 19.984V15.616C43.4846 15.424 43.5166 15.2 43.5806 14.944C43.6766 14.688 43.8846 14.48 44.2046 14.32L45.5486 13.696C45.0046 13.696 44.5886 13.552 44.3006 13.264C44.0126 12.976 43.8206 12.64 43.7246 12.256C43.6286 11.872 43.6286 11.472 43.7246 11.056C43.8526 10.608 44.0446 10.208 44.3006 9.856C44.6526 9.408 45.0526 9.008 45.5006 8.656C45.9806 8.272 46.4286 7.984 46.8446 7.792C47.3566 7.952 47.9326 8.128 48.5726 8.32C49.2126 8.512 49.8686 8.688 50.5406 8.848C51.2126 8.976 51.8686 9.056 52.5086 9.088C53.1806 9.12 53.7566 9.04 54.2366 8.848C53.8846 9.2 53.6126 9.52 53.4206 9.808C53.2606 10.096 53.1806 10.512 53.1806 11.056V19.888C53.1806 21.264 53.2286 22.368 53.3246 23.2C53.4526 24.032 53.8366 24.544 54.4766 24.736ZM48.3326 24.736C48.6846 24.544 48.9406 24.256 49.1006 23.872C49.2926 23.456 49.4206 23.024 49.4846 22.576C49.5806 22.128 49.6286 21.68 49.6286 21.232C49.6286 20.752 49.6286 20.336 49.6286 19.984V14.128V12.352C49.6286 12.288 49.6446 12.224 49.6766 12.16C49.1006 12 48.4926 11.84 47.8526 11.68C47.2446 11.52 46.5726 11.328 45.8366 11.104C45.4526 11.008 45.1486 11.04 44.9246 11.2C44.7006 11.36 44.5566 11.568 44.4926 11.824C44.4606 12.08 44.5086 12.336 44.6366 12.592C44.7966 12.848 45.0526 13.008 45.4046 13.072C45.7886 13.136 46.2046 13.104 46.6526 12.976C47.1006 12.848 47.5326 12.704 47.9486 12.544L48.7646 12.16C48.6366 12.32 48.4766 12.496 48.2846 12.688C48.0926 12.88 47.9006 13.104 47.7086 13.36C47.5166 13.584 47.3406 13.84 47.1806 14.128C47.0526 14.416 46.9886 14.736 46.9886 15.088V19.888C46.9886 21.264 47.0366 22.368 47.1326 23.2C47.2606 24.032 47.6606 24.544 48.3326 24.736ZM74.0235 24.736C74.5035 24.448 74.9035 24.096 75.2235 23.68C75.5435 23.232 75.8315 22.736 76.0875 22.192C76.0875 22.768 75.9435 23.344 75.6555 23.92C75.3995 24.496 75.0635 25.04 74.6475 25.552C74.2635 26.064 73.8315 26.544 73.3515 26.992C72.8715 27.408 72.4235 27.744 72.0075 28C71.3355 27.488 70.7435 26.912 70.2315 26.272C69.7195 25.632 69.3835 25.024 69.2235 24.448C68.8075 25.184 68.2795 25.872 67.6395 26.512C66.9995 27.152 66.4075 27.648 65.8635 28C65.0955 27.424 64.4235 26.784 63.8475 26.08C63.3035 25.344 63.0315 24.656 63.0315 24.016C62.9035 24.272 62.7115 24.464 62.4555 24.592C62.1995 24.72 61.9435 24.768 61.6875 24.736C62.2635 24.384 62.6315 23.792 62.7915 22.96C62.9515 22.128 63.0315 21.136 63.0315 19.984V12.352C63.0315 12.256 63.0315 12.144 63.0315 12.016C63.0635 11.888 63.1115 11.76 63.1755 11.632L61.6875 10.624L64.3275 7.792C64.4555 7.92 64.6315 8.08 64.8555 8.272C65.0795 8.432 65.3355 8.592 65.6235 8.752C65.9115 8.88 66.2155 8.976 66.5355 9.04C66.8875 9.072 67.2395 9.008 67.5915 8.848C67.2395 9.2 66.9675 9.52 66.7755 9.808C66.6155 10.096 66.5355 10.512 66.5355 11.056V19.888C66.5355 21.264 66.5835 22.368 66.6795 23.2C66.8075 24.032 67.2075 24.544 67.8795 24.736C68.1995 24.544 68.4555 24.256 68.6475 23.872C68.8395 23.456 68.9675 23.024 69.0315 22.576C69.0955 22.128 69.1275 21.68 69.1275 21.232C69.1595 20.752 69.1755 20.336 69.1755 19.984V14.128V12.352C69.1755 12.16 69.2075 11.952 69.2715 11.728C69.3675 11.472 69.5755 11.248 69.8955 11.056L70.1355 10.96C69.4635 10.736 68.8395 10.656 68.2635 10.72C67.7195 10.752 67.4155 11.056 67.3515 11.632C67.2875 11.216 67.3195 10.832 67.4475 10.48C67.6075 10.128 67.8155 9.792 68.0715 9.472C68.3275 9.152 68.5995 8.864 68.8875 8.608C69.2075 8.32 69.4955 8.048 69.7515 7.792C70.4555 7.952 71.0955 8.176 71.6715 8.464C72.2475 8.72 72.9515 8.848 73.7835 8.848C73.4635 9.168 73.2075 9.6 73.0155 10.144C72.8235 10.688 72.7115 11.184 72.6795 11.632L72.7275 19.888C72.7275 21.264 72.7755 22.368 72.8715 23.2C72.9675 24.032 73.3515 24.544 74.0235 24.736ZM92.5436 24.736C93.0236 24.448 93.4236 24.096 93.7436 23.68C94.0636 23.232 94.3516 22.736 94.6076 22.192C94.6076 22.768 94.4636 23.344 94.1756 23.92C93.9196 24.496 93.5836 25.04 93.1676 25.552C92.7516 26.064 92.3036 26.544 91.8236 26.992C91.3756 27.408 90.9436 27.744 90.5276 28C89.7596 27.424 89.0876 26.784 88.5116 26.08C87.9676 25.344 87.6956 24.656 87.6956 24.016V18.4V12.352C87.6956 12.096 87.7276 11.888 87.7916 11.728L87.5516 11.584C87.1996 11.456 86.8796 11.728 86.5916 12.4C86.3036 13.072 86.0476 13.936 85.8236 14.992C85.6316 16.016 85.4556 17.12 85.2956 18.304C85.1676 19.456 85.0876 20.464 85.0556 21.328C85.1196 22.64 85.2476 23.536 85.4396 24.016C85.6636 24.496 86.0796 24.736 86.6876 24.736L84.3356 28C83.4716 27.488 82.7836 26.848 82.2716 26.08C81.7596 25.28 81.5036 24.592 81.5036 24.016V19.984V12.352C81.5036 12.192 81.5516 11.984 81.6476 11.728L81.3596 11.584C81.0396 11.456 80.7356 11.728 80.4476 12.4C80.1596 13.072 79.9036 13.936 79.6796 14.992C79.4876 16.016 79.3116 17.12 79.1516 18.304C78.9916 19.456 78.8956 20.464 78.8636 21.328C78.9276 22.64 79.0716 23.536 79.2956 24.016C79.5196 24.496 79.9356 24.736 80.5436 24.736L78.1916 28C77.2956 27.488 76.5916 26.848 76.0796 26.08C75.5996 25.28 75.3596 24.592 75.3596 24.016C75.2316 24.272 75.0396 24.464 74.7836 24.592C74.5276 24.72 74.2716 24.768 74.0156 24.736C74.5916 24.384 74.9596 23.792 75.1196 22.96C75.2796 22.128 75.3596 21.136 75.3596 19.984V12.352C75.3596 12.256 75.3596 12.144 75.3596 12.016C75.3916 11.888 75.4396 11.76 75.5036 11.632L74.0156 10.624L76.6556 7.792C76.7836 7.92 76.9596 8.08 77.1836 8.272C77.4076 8.432 77.6636 8.592 77.9516 8.752C78.2396 8.88 78.5436 8.976 78.8636 9.04C79.2156 9.072 79.5676 9.008 79.9196 8.848C79.5676 9.2 79.2956 9.52 79.1036 9.808C78.9436 10.096 78.8636 10.512 78.8636 11.056V15.664C78.9596 14.8 79.0876 13.952 79.2476 13.12C79.4076 12.288 79.5996 11.52 79.8236 10.816C80.0796 10.08 80.3676 9.456 80.6876 8.944C81.0076 8.432 81.3756 8.048 81.7916 7.792C82.2396 8.048 82.6236 8.288 82.9436 8.512C83.2636 8.736 83.5676 8.912 83.8556 9.04C84.1756 9.136 84.4956 9.184 84.8156 9.184C85.1676 9.152 85.5996 9.04 86.1116 8.848C85.7596 9.2 85.4876 9.52 85.2956 9.808C85.1356 10.096 85.0556 10.512 85.0556 11.056V15.664C85.1516 14.8 85.2796 13.952 85.4396 13.12C85.5996 12.288 85.7916 11.52 86.0156 10.816C86.2716 10.08 86.5436 9.456 86.8316 8.944C87.1516 8.432 87.5196 8.048 87.9356 7.792C88.3836 8.048 88.7676 8.288 89.0876 8.512C89.4076 8.736 89.7116 8.912 89.9996 9.04C90.3196 9.136 90.6396 9.184 90.9596 9.184C91.3116 9.152 91.7436 9.04 92.2556 8.848C91.9036 9.2 91.6316 9.52 91.4396 9.808C91.2796 10.096 91.1996 10.512 91.1996 11.056V19.888C91.1996 21.264 91.2476 22.368 91.3436 23.2C91.4716 24.032 91.8716 24.544 92.5436 24.736ZM104.867 24.736C105.379 24.448 105.795 24.096 106.115 23.68C106.435 23.232 106.723 22.736 106.979 22.192C106.979 22.768 106.835 23.344 106.547 23.92C106.259 24.496 105.907 25.04 105.491 25.552C105.107 26.064 104.675 26.544 104.195 26.992C103.715 27.408 103.267 27.744 102.851 28C102.211 27.488 101.619 26.912 101.075 26.272C100.563 25.632 100.227 25.024 100.067 24.448C99.6513 25.184 99.1233 25.872 98.4833 26.512C97.8433 27.152 97.2513 27.648 96.7073 28C95.9393 27.424 95.2673 26.784 94.6913 26.08C94.1473 25.344 93.8753 24.656 93.8753 24.016C93.7793 24.272 93.5873 24.464 93.2993 24.592C93.0433 24.72 92.7873 24.768 92.5312 24.736C93.1073 24.384 93.4753 23.792 93.6353 22.96C93.7953 22.128 93.8753 21.136 93.8753 19.984V15.616C93.8753 15.424 93.9073 15.2 93.9713 14.944C94.0673 14.688 94.2753 14.48 94.5953 14.32L95.9393 13.696C95.3953 13.696 94.9793 13.552 94.6913 13.264C94.4033 12.976 94.2113 12.64 94.1152 12.256C94.0193 11.872 94.0193 11.472 94.1152 11.056C94.2433 10.608 94.4353 10.208 94.6913 9.856C95.0433 9.408 95.4433 9.008 95.8913 8.656C96.3713 8.272 96.8193 7.984 97.2353 7.792C97.7473 7.952 98.3233 8.128 98.9633 8.32C99.6033 8.512 100.259 8.688 100.931 8.848C101.603 8.976 102.259 9.056 102.899 9.088C103.571 9.12 104.147 9.04 104.627 8.848C104.275 9.2 104.003 9.52 103.811 9.808C103.651 10.096 103.571 10.512 103.571 11.056V19.888C103.571 21.264 103.619 22.368 103.715 23.2C103.843 24.032 104.227 24.544 104.867 24.736ZM98.7233 24.736C99.0753 24.544 99.3313 24.256 99.4913 23.872C99.6833 23.456 99.8113 23.024 99.8753 22.576C99.9713 22.128 100.019 21.68 100.019 21.232C100.019 20.752 100.019 20.336 100.019 19.984V14.128V12.352C100.019 12.288 100.035 12.224 100.067 12.16C99.4913 12 98.8833 11.84 98.2433 11.68C97.6353 11.52 96.9633 11.328 96.2273 11.104C95.8433 11.008 95.5393 11.04 95.3153 11.2C95.0913 11.36 94.9473 11.568 94.8833 11.824C94.8513 12.08 94.8993 12.336 95.0273 12.592C95.1873 12.848 95.4433 13.008 95.7953 13.072C96.1793 13.136 96.5953 13.104 97.0433 12.976C97.4913 12.848 97.9233 12.704 98.3393 12.544L99.1553 12.16C99.0273 12.32 98.8673 12.496 98.6753 12.688C98.4833 12.88 98.2913 13.104 98.0993 13.36C97.9073 13.584 97.7313 13.84 97.5713 14.128C97.4433 14.416 97.3793 14.736 97.3793 15.088V19.888C97.3793 21.264 97.4273 22.368 97.5233 23.2C97.6513 24.032 98.0513 24.544 98.7233 24.736ZM136.654 24.736C137.134 24.448 137.534 24.096 137.854 23.68C138.174 23.232 138.462 22.736 138.718 22.192C138.718 22.768 138.574 23.344 138.286 23.92C138.03 24.496 137.694 25.04 137.278 25.552C136.894 26.064 136.462 26.544 135.982 26.992C135.502 27.408 135.054 27.744 134.638 28C134.03 27.552 133.47 27.04 132.958 26.464C132.478 25.888 132.142 25.328 131.95 24.784C131.374 25.296 130.814 25.744 130.27 26.128C129.758 26.512 129.278 26.832 128.83 27.088C128.414 27.344 128.062 27.552 127.774 27.712C127.486 27.872 127.31 27.968 127.246 28C126.606 27.776 125.886 27.44 125.086 26.992C124.318 26.544 123.502 26.064 122.638 25.552C121.774 25.04 120.878 24.528 119.95 24.016C119.022 23.472 118.078 22.992 117.118 22.576C116.542 22.32 116.014 22.176 115.534 22.144C115.086 22.112 114.67 22.384 114.286 22.96C113.902 23.536 113.726 24.208 113.758 24.976C113.822 25.744 114.046 26.432 114.43 27.04C114.846 27.648 115.422 28.08 116.158 28.336C116.926 28.592 117.838 28.48 118.894 28C117.966 28.544 117.054 28.736 116.158 28.576C115.294 28.416 114.574 28.048 113.998 27.472C113.422 26.896 113.054 26.176 112.894 25.312C112.734 24.416 112.91 23.488 113.422 22.528C113.614 22.208 113.886 21.824 114.238 21.376C114.622 20.928 115.038 20.512 115.486 20.128C115.934 19.744 116.398 19.456 116.878 19.264C117.39 19.072 117.838 19.056 118.222 19.216C119.118 19.632 120.014 20.112 120.91 20.656C121.71 20.016 122.462 19.28 123.166 18.448C123.87 17.616 124.542 16.736 125.182 15.808C125.822 14.848 126.446 13.872 127.054 12.88C127.662 11.856 128.27 10.832 128.878 9.808C128.622 9.232 128.158 8.688 127.486 8.176C126.814 7.664 126.062 7.328 125.23 7.168C124.398 7.008 123.566 7.104 122.734 7.456C121.902 7.776 121.214 8.464 120.67 9.52C120.734 8.624 121.102 7.856 121.774 7.216C122.446 6.576 123.262 6.144 124.222 5.92C125.182 5.664 126.19 5.68 127.246 5.968C128.302 6.256 129.246 6.88 130.078 7.84L130.942 6.496C130.366 5.76 129.598 5.2 128.638 4.816C127.678 4.432 126.686 4.24 125.662 4.24C124.382 4.24 123.294 4.464 122.398 4.912C121.502 5.36 120.782 5.952 120.238 6.688C119.726 7.424 119.39 8.24 119.23 9.136C119.102 10.032 119.15 10.928 119.374 11.824C119.63 12.688 120.062 13.52 120.67 14.32C121.278 15.088 122.094 15.712 123.118 16.192C121.71 15.808 120.59 15.168 119.758 14.272C118.926 13.344 118.334 12.304 117.982 11.152C117.662 10 117.598 8.816 117.79 7.6C117.982 6.352 118.414 5.216 119.086 4.192C119.79 3.136 120.718 2.288 121.87 1.648C123.022 0.975998 124.398 0.639997 125.998 0.639997C127.534 0.639997 128.926 0.863997 130.174 1.312C131.422 1.76 132.462 2.432 133.294 3.328L136.414 1.552C136.03 1.904 135.742 2.24 135.55 2.56C135.39 2.848 135.31 3.264 135.31 3.808V19.984C135.31 21.328 135.374 22.416 135.502 23.248C135.63 24.048 136.014 24.544 136.654 24.736ZM131.758 21.376C131.79 20.832 131.806 20.304 131.806 19.792C131.806 19.28 131.806 18.768 131.806 18.256H124.222C123.358 19.312 122.462 20.24 121.534 21.04C122.558 21.648 123.582 22.256 124.606 22.864C125.63 23.472 126.558 23.92 127.39 24.208C128.734 24.72 129.758 24.768 130.462 24.352C131.166 23.904 131.598 22.912 131.758 21.376ZM131.374 7.216C130.702 8.24 130.046 9.296 129.406 10.384C128.766 11.44 128.126 12.496 127.486 13.552H131.806V8.848C131.774 8.24 131.63 7.696 131.374 7.216ZM126.718 14.704H131.806V14.32H127.006L126.718 14.704ZM148.833 8.848C148.065 9.392 147.361 10.24 146.721 11.392C146.081 12.512 145.553 13.744 145.137 15.088C144.753 16.432 144.513 17.776 144.417 19.12C144.353 20.464 144.529 21.584 144.945 22.48C144.401 21.936 144.033 21.232 143.841 20.368C143.681 19.504 143.633 18.592 143.697 17.632C143.761 16.64 143.905 15.664 144.129 14.704C144.385 13.712 144.657 12.832 144.945 12.064L144.081 11.584C143.825 11.456 143.585 11.6 143.361 12.016C143.137 12.4 142.929 12.928 142.737 13.6C142.545 14.272 142.369 15.056 142.209 15.952C142.081 16.816 141.969 17.68 141.873 18.544C141.777 19.376 141.697 20.16 141.633 20.896C141.569 21.632 141.553 22.208 141.585 22.624C141.681 23.424 141.841 23.984 142.065 24.304C142.289 24.592 142.657 24.736 143.169 24.736L140.817 28C139.921 27.488 139.217 26.848 138.705 26.08C138.225 25.28 137.985 24.592 137.985 24.016C137.857 24.272 137.665 24.464 137.409 24.592C137.153 24.72 136.897 24.768 136.641 24.736C137.217 24.384 137.585 23.792 137.745 22.96C137.905 22.128 137.985 21.136 137.985 19.984V12.352C137.985 12.256 137.985 12.144 137.985 12.016C138.017 11.888 138.065 11.76 138.129 11.632L136.641 10.624L139.281 7.792C139.409 7.92 139.585 8.08 139.809 8.272C140.033 8.432 140.289 8.592 140.577 8.752C140.865 8.88 141.169 8.976 141.489 9.04C141.841 9.072 142.193 9.008 142.545 8.848C142.193 9.2 141.921 9.52 141.729 9.808C141.569 10.096 141.489 10.512 141.489 11.056V16.576C141.585 15.648 141.713 14.72 141.873 13.792C142.033 12.832 142.225 11.952 142.449 11.152C142.705 10.352 142.993 9.664 143.313 9.088C143.665 8.48 144.065 8.048 144.513 7.792C144.961 8.048 145.345 8.288 145.665 8.512C145.985 8.704 146.289 8.864 146.577 8.992C146.897 9.12 147.217 9.184 147.537 9.184C147.889 9.152 148.321 9.04 148.833 8.848ZM152.63 24.736C153.11 24.448 153.51 24.096 153.83 23.68C154.15 23.232 154.438 22.736 154.694 22.192C154.694 22.768 154.55 23.344 154.262 23.92C154.006 24.496 153.67 25.04 153.254 25.552C152.838 26.064 152.39 26.544 151.91 26.992C151.462 27.408 151.03 27.744 150.614 28C149.846 27.424 149.174 26.784 148.598 26.08C148.054 25.344 147.782 24.656 147.782 24.016C147.654 24.272 147.462 24.464 147.206 24.592C146.95 24.72 146.694 24.768 146.438 24.736C147.014 24.384 147.382 23.792 147.542 22.96C147.702 22.128 147.782 21.136 147.782 19.984V8.368C147.59 8.304 147.382 8.24 147.158 8.176C146.966 8.08 146.758 7.952 146.534 7.792H147.782V5.296C147.782 5.104 147.814 4.88 147.878 4.624C147.974 4.368 148.166 4.16 148.454 4L152.342 1.744C151.99 2.128 151.718 2.464 151.526 2.752C151.366 3.04 151.286 3.456 151.286 4V7.792H153.878C153.686 7.984 153.462 8.144 153.206 8.272C152.95 8.368 152.694 8.496 152.438 8.656C152.182 8.784 151.942 8.944 151.718 9.136C151.526 9.328 151.382 9.616 151.286 10V19.984C151.286 21.328 151.334 22.416 151.43 23.248C151.558 24.048 151.958 24.544 152.63 24.736ZM158.817 24.736C159.009 24.576 159.185 24.32 159.345 23.968C159.505 23.584 159.649 23.184 159.777 22.768C159.905 22.32 160.001 21.872 160.065 21.424C160.129 20.976 160.145 20.592 160.113 20.272C160.209 20.368 160.289 20.528 160.353 20.752C160.449 20.944 160.529 21.152 160.593 21.376C160.657 21.568 160.705 21.76 160.737 21.952C160.801 22.112 160.833 22.208 160.833 22.24C160.833 22.816 160.689 23.392 160.401 23.968C160.145 24.544 159.809 25.088 159.393 25.6C159.009 26.112 158.577 26.576 158.097 26.992C157.649 27.408 157.217 27.744 156.801 28C156.033 27.424 155.361 26.784 154.785 26.08C154.209 25.344 153.921 24.656 153.921 24.016C153.825 24.272 153.649 24.464 153.393 24.592C153.137 24.72 152.881 24.768 152.625 24.736C153.201 24.384 153.553 23.792 153.681 22.96C153.841 22.128 153.921 21.136 153.921 19.984V11.536C153.921 11.312 153.969 11.088 154.065 10.864C154.161 10.608 154.353 10.4 154.641 10.24L158.961 7.792C159.409 8.048 159.809 8.288 160.161 8.512C160.513 8.704 160.865 8.864 161.217 8.992C161.601 9.12 161.985 9.184 162.369 9.184C162.753 9.152 163.217 9.04 163.761 8.848C162.737 9.936 161.617 11.072 160.401 12.256C159.217 13.44 158.241 14.656 157.473 15.904V19.888C157.473 21.264 157.521 22.368 157.617 23.2C157.745 24.032 158.145 24.544 158.817 24.736ZM157.473 14.512C157.729 14.064 158.017 13.632 158.337 13.216C158.657 12.768 158.977 12.336 159.297 11.92L157.473 10.96V14.512Z" fill="black"/>
</svg>
